<?xml version="1.0" standalone="no"?>
<!DOCTYPE svg PUBLIC "-//W3C//DTD SVG 1.1//EN"
  "http://www.w3.org/Graphics/SVG/1.1/DTD/svg11.dtd">
<!-- Created with matplotlib (http://matplotlib.sourceforge.net/) -->
<svg width="468pt" height="251pt" viewBox="0 0 468 251"
   xmlns="http://www.w3.org/2000/svg"
   xmlns:xlink="http://www.w3.org/1999/xlink"
   version="1.1"
   id="svg1">
<filter id="colorAdd"><feComposite in="SourceGraphic" in2="BackgroundImage" operator="arithmetic" k2="1" k3="1"/></filter>
<g id="figure1">
<g id="patch1">
<path style="fill: #ffffff; stroke: #ffffff; stroke-width: 1.000000; stroke-linejoin: round; stroke-linecap: square;  opacity: 1.000000"  d="M0.000000 252.000000L468.000000 252.000000L468.000000 0.000000
L0.000000 0.000000z"/>
</g>
<g id="axes1">
<g id="patch2">
<path style="fill: #ffffff; opacity: 1.000000"  d="M10.800000 241.200000L457.200000 241.200000L457.200000 10.800000
L10.800000 10.800000z"/>
</g>
<g id="line2d1">
<defs>
  <clipPath id="p74e9fb01270ddec5f61cbf79e21602c6">
<rect x="10.800000" y="10.800000" width="446.400000" height="230.400000"/>
  </clipPath>
</defs><path style="fill: none; stroke: #0000ff; stroke-width: 1.000000; stroke-linejoin: round; stroke-linecap: square;  opacity: 1.000000" clip-path="url(#p74e9fb01270ddec5f61cbf79e21602c6)" d="M10.800000 209.089257L15.309091 209.026978L19.818182 208.264295
L24.327273 206.809002L28.836364 204.702713L33.345455 202.020278
L37.854545 198.867636L42.363636 195.378140L46.872727 191.707486
L51.381818 188.027397L55.890909 184.518332L60.400000 181.361480
L64.909091 178.730391L69.418182 176.782591L73.927273 175.651547
L78.436364 175.439354L82.945455 176.210477L87.454545 177.986867
L91.963636 180.744701L96.472727 184.412946L100.981818 188.873870
L105.490909 193.965549L110.000000 199.486325L114.509091 205.201103
L119.018182 210.849283L123.527273 216.154046L128.036364 220.832672
L132.545455 224.607488L137.054545 227.217025L141.563636 228.426950
L146.072727 228.040318L150.581818 225.906725L155.090909 221.929970
L159.600000 216.073885L164.109091 208.366063L168.618182 198.899284
L173.127273 187.830547L177.636364 175.377676L182.145455 161.813595
L186.654545 147.458446L191.163636 132.669807L195.672727 117.831356
L200.181818 103.340381L204.690909 89.594594L209.200000 76.978733
L213.709091 65.851448L218.218182 56.532972L222.727273 49.294031
L227.236364 44.346421L231.745455 41.835600L236.254545 41.835600
L240.763636 44.346421L245.272727 49.294031L249.781818 56.532972
L254.290909 65.851448L258.800000 76.978733L263.309091 89.594594
L267.818182 103.340381L272.327273 117.831356L276.836364 132.669807
L281.345455 147.458446L285.854545 161.813595L290.363636 175.377676
L294.872727 187.830547L299.381818 198.899284L303.890909 208.366063
L308.400000 216.073885L312.909091 221.929970L317.418182 225.906725
L321.927273 228.040318L326.436364 228.426950L330.945455 227.217025
L335.454545 224.607488L339.963636 220.832672L344.472727 216.154046
L348.981818 210.849283L353.490909 205.201103L358.000000 199.486325
L362.509091 193.965549L367.018182 188.873870L371.527273 184.412946
L376.036364 180.744701L380.545455 177.986867L385.054545 176.210477
L389.563636 175.439354L394.072727 175.651547L398.581818 176.782591
L403.090909 178.730391L407.600000 181.361480L412.109091 184.518332
L416.618182 188.027397L421.127273 191.707486L425.636364 195.378140
L430.145455 198.867636L434.654545 202.020278L439.163636 204.702713
L443.672727 206.809002L448.181818 208.264295L452.690909 209.026978
L457.200000 209.089257"/>
</g>
<g id="line2d2">
<path style="fill: none; stroke: #008000; stroke-width: 1.000000; stroke-linejoin: round; stroke-linecap: square;  opacity: 1.000000" clip-path="url(#p74e9fb01270ddec5f61cbf79e21602c6)" d="M10.800000 201.377411L15.309091 201.580356L19.818182 201.444856
L24.327273 200.939504L28.836364 200.050769L33.345455 198.785629
L37.854545 197.173277L42.363636 195.265720L46.872727 193.137141
L51.381818 190.881952L55.890909 188.611538L60.400000 186.449763
L64.909091 184.527377L69.418182 182.975545L73.927273 181.918770
L78.436364 181.467544L82.945455 181.711094L87.454545 182.710607
L91.963636 184.493315L96.472727 187.047832L100.981818 190.321026
L105.490909 194.216739L110.000000 198.596500L114.509091 203.282360
L119.018182 208.061820L123.527273 212.694767L128.036364 216.922169
L132.545455 220.476254L137.054545 223.091739L141.563636 224.517657
L146.072727 224.529243L150.581818 222.939347L155.090909 219.608810
L159.600000 214.455285L164.109091 207.460039L168.618182 198.672337
L173.127273 188.211121L177.636364 176.263811L182.145455 163.082173
L186.654545 148.975357L191.163636 134.300310L195.672727 119.449915
L200.181818 104.839326L204.690909 90.891027L209.200000 78.019251
L213.709091 66.614412L218.218182 57.028212L222.727273 49.560074
L227.236364 44.445488L231.745455 41.846794L236.254545 41.846794
L240.763636 44.445488L245.272727 49.560074L249.781818 57.028212
L254.290909 66.614412L258.800000 78.019251L263.309091 90.891027
L267.818182 104.839326L272.327273 119.449915L276.836364 134.300310
L281.345455 148.975357L285.854545 163.082173L290.363636 176.263811
L294.872727 188.211121L299.381818 198.672337L303.890909 207.460039
L308.400000 214.455285L312.909091 219.608810L317.418182 222.939347
L321.927273 224.529243L326.436364 224.517657L330.945455 223.091739
L335.454545 220.476254L339.963636 216.922169L344.472727 212.694767
L348.981818 208.061820L353.490909 203.282360L358.000000 198.596500
L362.509091 194.216739L367.018182 190.321026L371.527273 187.047832
L376.036364 184.493315L380.545455 182.710607L385.054545 181.711094
L389.563636 181.467544L394.072727 181.918770L398.581818 182.975545
L403.090909 184.527377L407.600000 186.449763L412.109091 188.611538
L416.618182 190.881952L421.127273 193.137141L425.636364 195.265720
L430.145455 197.173277L434.654545 198.785629L439.163636 200.050769
L443.672727 200.939504L448.181818 201.444856L452.690909 201.580356
L457.200000 201.377411"/>
</g>
<g id="line2d3">
<path style="fill: none; stroke: #ff0000; stroke-width: 1.000000; stroke-linejoin: round; stroke-linecap: square;  opacity: 1.000000" clip-path="url(#p74e9fb01270ddec5f61cbf79e21602c6)" d="M10.800000 194.241977L15.309091 194.313017L19.818182 194.437283
L24.327273 194.599371L28.836364 194.777126L33.345455 194.943201
L37.854545 195.067411L42.363636 195.119745L46.872727 195.073837
L51.381818 194.910617L55.890909 194.621816L60.400000 194.212956
L64.909091 193.705487L69.418182 193.137739L73.927273 192.564420
L78.436364 192.054512L82.945455 191.687511L87.454545 191.548084
L91.963636 191.719393L96.472727 192.275430L100.981818 193.272859
L105.490909 194.742938L110.000000 196.684157L114.509091 199.056242
L119.018182 201.776130L123.527273 204.716451L128.036364 207.706902
L132.545455 210.538731L137.054545 212.972359L141.563636 214.747916
L146.072727 215.598292L150.581818 215.264049L155.090909 213.509392
L159.600000 210.138271L164.109091 205.009583L168.618182 198.050464
L173.127273 189.266711L177.636364 178.749501L182.145455 166.677760
L186.654545 153.315811L191.163636 139.006153L195.672727 124.157586
L200.181818 109.229151L204.690909 94.710637L209.200000 81.100676
L213.709091 68.883574L218.218182 58.506175L222.727273 50.356071
L227.236364 44.742403L231.745455 41.880369L236.254545 41.880369
L240.763636 44.742403L245.272727 50.356071L249.781818 58.506175
L254.290909 68.883574L258.800000 81.100676L263.309091 94.710637
L267.818182 109.229151L272.327273 124.157586L276.836364 139.006153
L281.345455 153.315811L285.854545 166.677760L290.363636 178.749501
L294.872727 189.266711L299.381818 198.050464L303.890909 205.009583
L308.400000 210.138271L312.909091 213.509392L317.418182 215.264049
L321.927273 215.598292L326.436364 214.747916L330.945455 212.972359
L335.454545 210.538731L339.963636 207.706902L344.472727 204.716451
L348.981818 201.776130L353.490909 199.056242L358.000000 196.684157
L362.509091 194.742938L367.018182 193.272859L371.527273 192.275430
L376.036364 191.719393L380.545455 191.548084L385.054545 191.687511
L389.563636 192.054512L394.072727 192.564420L398.581818 193.137739
L403.090909 193.705487L407.600000 194.212956L412.109091 194.621816
L416.618182 194.910617L421.127273 195.073837L425.636364 195.119745
L430.145455 195.067411L434.654545 194.943201L439.163636 194.777126
L443.672727 194.599371L448.181818 194.437283L452.690909 194.313017
L457.200000 194.241977"/>
</g>
<g id="line2d4">
<path style="fill: none; stroke: #00bfbf; stroke-width: 1.000000; stroke-linejoin: round; stroke-linecap: square;  opacity: 1.000000" clip-path="url(#p74e9fb01270ddec5f61cbf79e21602c6)" d="M10.800000 195.120000L15.309091 195.186547L19.818182 195.248044
L24.327273 195.291060L28.836364 195.304095L33.345455 195.280167
L37.854545 195.218857L42.363636 195.127349L46.872727 195.020119
L51.381818 194.917128L55.890909 194.840666L60.400000 194.811229
L64.909091 194.843099L69.418182 194.940398L73.927273 195.094478
L78.436364 195.283341L82.945455 195.473566L87.454545 195.624818
L91.963636 195.696561L96.472727 195.656142L100.981818 195.487018
L105.490909 195.195649L110.000000 194.815543L114.509091 194.407131
L119.018182 194.052602L123.527273 193.845451L128.036364 193.875319
L132.545455 194.209477L137.054545 194.873068L141.563636 195.830757
L146.072727 196.972639L150.581818 198.107169L155.090909 198.963275
L159.600000 199.202984L164.109091 198.444658L168.618182 196.295632
L173.127273 192.391731L177.636364 186.439992L182.145455 178.260147
L186.654545 167.820100L191.163636 155.260878L195.672727 140.907338
L200.181818 125.262192L204.690909 108.982622L209.200000 92.840558
L213.709091 77.669576L218.218182 64.302918L222.727273 53.508311
L227.236364 45.925790L231.745455 42.014619L236.254545 42.014619
L240.763636 45.925790L245.272727 53.508311L249.781818 64.302918
L254.290909 77.669576L258.800000 92.840558L263.309091 108.982622
L267.818182 125.262192L272.327273 140.907338L276.836364 155.260878
L281.345455 167.820100L285.854545 178.260147L290.363636 186.439992
L294.872727 192.391731L299.381818 196.295632L303.890909 198.444658
L308.400000 199.202984L312.909091 198.963275L317.418182 198.107169
L321.927273 196.972639L326.436364 195.830757L330.945455 194.873068
L335.454545 194.209477L339.963636 193.875319L344.472727 193.845451
L348.981818 194.052602L353.490909 194.407131L358.000000 194.815543
L362.509091 195.195649L367.018182 195.487018L371.527273 195.656142
L376.036364 195.696561L380.545455 195.624818L385.054545 195.473566
L389.563636 195.283341L394.072727 195.094478L398.581818 194.940398
L403.090909 194.843099L407.600000 194.811229L412.109091 194.840666
L416.618182 194.917128L421.127273 195.020119L425.636364 195.127349
L430.145455 195.218857L434.654545 195.280167L439.163636 195.304095
L443.672727 195.291060L448.181818 195.248044L452.690909 195.186547
L457.200000 195.120000"/>
</g>
<g id="GridlinesCollection1">
<defs>
<path id="coll0_0_b2edcec0a8d386a25afb869111015082" d="M42.685714 -10.800000L42.685714 -241.200000"/>
<path id="coll0_1_81d13425207a06ff6ed6858fb7da4b01" d="M106.457143 -10.800000L106.457143 -241.200000"/>
<path id="coll0_2_fbcf646c927f56a00cf513ca67730d63" d="M170.228571 -10.800000L170.228571 -241.200000"/>
<path id="coll0_3_c9e410fa189b1852806514e0dc6047c4" d="M234.000000 -10.800000L234.000000 -241.200000"/>
<path id="coll0_4_49c52bc4bebd617b3622f4f5a5fb787f" d="M297.771429 -10.800000L297.771429 -241.200000"/>
<path id="coll0_5_01f0bd5e9e169c4537f42b4c0687b09d" d="M361.542857 -10.800000L361.542857 -241.200000"/>
<path id="coll0_6_cac372182a3acb58a2e38c181db0f05e" d="M425.314286 -10.800000L425.314286 -241.200000"/>
<path id="coll0_7_57939f14fbd122633cd4f543106aee14" d="M10.800000 4.560000L457.200000 4.560000"/>
<path id="coll0_8_50c46f9e7cb483a757a68a60ed2b1568" d="M10.800000 -26.160000L457.200000 -26.160000"/>
<path id="coll0_9_5371c145652c1939db6ce2c273607857" d="M10.800000 -56.880000L457.200000 -56.880000"/>
<path id="coll0_a_c79e6828828b8ea11b5cd92fc8144271" d="M10.800000 -87.600000L457.200000 -87.600000"/>
<path id="coll0_b_852b94f099ee612a2b931328cb40f440" d="M10.800000 -118.320000L457.200000 -118.320000"/>
<path id="coll0_c_6b6fcdabb75a8cd4cbfca2a0ec72862f" d="M10.800000 -149.040000L457.200000 -149.040000"/>
<path id="coll0_d_8c2f3e24f4dc9217b7eb8e400190550a" d="M10.800000 -179.760000L457.200000 -179.760000"/>
<path id="coll0_e_6e4fa5e5063656422fdb183f2b91fcbe" d="M10.800000 -210.480000L457.200000 -210.480000"/>
<path id="coll0_f_3b2414302e1e140eefbe2932da9df739" d="M10.800000 -241.200000L457.200000 -241.200000"/>
<path id="coll0_10_94a074126ba3a2645696dbae66a38b6f" d="M10.800000 -271.920000L457.200000 -271.920000"/>
</defs>
<g clip-path="url(#p74e9fb01270ddec5f61cbf79e21602c6)"><use style="fill: none; stroke: #000000; stroke-width: 0.500000; stroke-linejoin: round; stroke-linecap: butt; stroke-dasharray: 1.000000,3.000000; stroke-dashoffset: 0.000000; opacity: 1.000000" xlink:href="#coll0_0_b2edcec0a8d386a25afb869111015082" x="0.000000" y="252.000000"/>
</g><g clip-path="url(#p74e9fb01270ddec5f61cbf79e21602c6)"><use style="fill: none; stroke: #000000; stroke-width: 0.500000; stroke-linejoin: round; stroke-linecap: butt; stroke-dasharray: 1.000000,3.000000; stroke-dashoffset: 0.000000; opacity: 1.000000" xlink:href="#coll0_1_81d13425207a06ff6ed6858fb7da4b01" x="0.000000" y="252.000000"/>
</g><g clip-path="url(#p74e9fb01270ddec5f61cbf79e21602c6)"><use style="fill: none; stroke: #000000; stroke-width: 0.500000; stroke-linejoin: round; stroke-linecap: butt; stroke-dasharray: 1.000000,3.000000; stroke-dashoffset: 0.000000; opacity: 1.000000" xlink:href="#coll0_2_fbcf646c927f56a00cf513ca67730d63" x="0.000000" y="252.000000"/>
</g><g clip-path="url(#p74e9fb01270ddec5f61cbf79e21602c6)"><use style="fill: none; stroke: #000000; stroke-width: 0.500000; stroke-linejoin: round; stroke-linecap: butt; stroke-dasharray: 1.000000,3.000000; stroke-dashoffset: 0.000000; opacity: 1.000000" xlink:href="#coll0_3_c9e410fa189b1852806514e0dc6047c4" x="0.000000" y="252.000000"/>
</g><g clip-path="url(#p74e9fb01270ddec5f61cbf79e21602c6)"><use style="fill: none; stroke: #000000; stroke-width: 0.500000; stroke-linejoin: round; stroke-linecap: butt; stroke-dasharray: 1.000000,3.000000; stroke-dashoffset: 0.000000; opacity: 1.000000" xlink:href="#coll0_4_49c52bc4bebd617b3622f4f5a5fb787f" x="0.000000" y="252.000000"/>
</g><g clip-path="url(#p74e9fb01270ddec5f61cbf79e21602c6)"><use style="fill: none; stroke: #000000; stroke-width: 0.500000; stroke-linejoin: round; stroke-linecap: butt; stroke-dasharray: 1.000000,3.000000; stroke-dashoffset: 0.000000; opacity: 1.000000" xlink:href="#coll0_5_01f0bd5e9e169c4537f42b4c0687b09d" x="0.000000" y="252.000000"/>
</g><g clip-path="url(#p74e9fb01270ddec5f61cbf79e21602c6)"><use style="fill: none; stroke: #000000; stroke-width: 0.500000; stroke-linejoin: round; stroke-linecap: butt; stroke-dasharray: 1.000000,3.000000; stroke-dashoffset: 0.000000; opacity: 1.000000" xlink:href="#coll0_6_cac372182a3acb58a2e38c181db0f05e" x="0.000000" y="252.000000"/>
</g><g clip-path="url(#p74e9fb01270ddec5f61cbf79e21602c6)"><use style="fill: none; stroke: #000000; stroke-width: 0.500000; stroke-linejoin: round; stroke-linecap: butt; stroke-dasharray: 1.000000,3.000000; stroke-dashoffset: 0.000000; opacity: 1.000000" xlink:href="#coll0_7_57939f14fbd122633cd4f543106aee14" x="0.000000" y="252.000000"/>
</g><g clip-path="url(#p74e9fb01270ddec5f61cbf79e21602c6)"><use style="fill: none; stroke: #000000; stroke-width: 0.500000; stroke-linejoin: round; stroke-linecap: butt; stroke-dasharray: 1.000000,3.000000; stroke-dashoffset: 0.000000; opacity: 1.000000" xlink:href="#coll0_8_50c46f9e7cb483a757a68a60ed2b1568" x="0.000000" y="252.000000"/>
</g><g clip-path="url(#p74e9fb01270ddec5f61cbf79e21602c6)"><use style="fill: none; stroke: #000000; stroke-width: 0.500000; stroke-linejoin: round; stroke-linecap: butt; stroke-dasharray: 1.000000,3.000000; stroke-dashoffset: 0.000000; opacity: 1.000000" xlink:href="#coll0_9_5371c145652c1939db6ce2c273607857" x="0.000000" y="252.000000"/>
</g><g clip-path="url(#p74e9fb01270ddec5f61cbf79e21602c6)"><use style="fill: none; stroke: #000000; stroke-width: 0.500000; stroke-linejoin: round; stroke-linecap: butt; stroke-dasharray: 1.000000,3.000000; stroke-dashoffset: 0.000000; opacity: 1.000000" xlink:href="#coll0_a_c79e6828828b8ea11b5cd92fc8144271" x="0.000000" y="252.000000"/>
</g><g clip-path="url(#p74e9fb01270ddec5f61cbf79e21602c6)"><use style="fill: none; stroke: #000000; stroke-width: 0.500000; stroke-linejoin: round; stroke-linecap: butt; stroke-dasharray: 1.000000,3.000000; stroke-dashoffset: 0.000000; opacity: 1.000000" xlink:href="#coll0_b_852b94f099ee612a2b931328cb40f440" x="0.000000" y="252.000000"/>
</g><g clip-path="url(#p74e9fb01270ddec5f61cbf79e21602c6)"><use style="fill: none; stroke: #000000; stroke-width: 0.500000; stroke-linejoin: round; stroke-linecap: butt; stroke-dasharray: 1.000000,3.000000; stroke-dashoffset: 0.000000; opacity: 1.000000" xlink:href="#coll0_c_6b6fcdabb75a8cd4cbfca2a0ec72862f" x="0.000000" y="252.000000"/>
</g><g clip-path="url(#p74e9fb01270ddec5f61cbf79e21602c6)"><use style="fill: none; stroke: #000000; stroke-width: 0.500000; stroke-linejoin: round; stroke-linecap: butt; stroke-dasharray: 1.000000,3.000000; stroke-dashoffset: 0.000000; opacity: 1.000000" xlink:href="#coll0_d_8c2f3e24f4dc9217b7eb8e400190550a" x="0.000000" y="252.000000"/>
</g><g clip-path="url(#p74e9fb01270ddec5f61cbf79e21602c6)"><use style="fill: none; stroke: #000000; stroke-width: 0.500000; stroke-linejoin: round; stroke-linecap: butt; stroke-dasharray: 1.000000,3.000000; stroke-dashoffset: 0.000000; opacity: 1.000000" xlink:href="#coll0_e_6e4fa5e5063656422fdb183f2b91fcbe" x="0.000000" y="252.000000"/>
</g><g clip-path="url(#p74e9fb01270ddec5f61cbf79e21602c6)"><use style="fill: none; stroke: #000000; stroke-width: 0.500000; stroke-linejoin: round; stroke-linecap: butt; stroke-dasharray: 1.000000,3.000000; stroke-dashoffset: 0.000000; opacity: 1.000000" xlink:href="#coll0_f_3b2414302e1e140eefbe2932da9df739" x="0.000000" y="252.000000"/>
</g><g clip-path="url(#p74e9fb01270ddec5f61cbf79e21602c6)"><use style="fill: none; stroke: #000000; stroke-width: 0.500000; stroke-linejoin: round; stroke-linecap: butt; stroke-dasharray: 1.000000,3.000000; stroke-dashoffset: 0.000000; opacity: 1.000000" xlink:href="#coll0_10_94a074126ba3a2645696dbae66a38b6f" x="0.000000" y="252.000000"/>
</g></g>
<g id="mpl_toolkits.axisartist.axis_artist1">
<g id="patch3">
<path style="fill: none; stroke: #000000; stroke-width: 1.000000; stroke-linejoin: round; stroke-linecap: round;  opacity: 1.000000"  d="M10.800000 195.120000L457.200000 195.120000L468.081966 195.120000"/>
<path style="fill: none; stroke: #000000; stroke-width: 1.000000; stroke-linejoin: round; stroke-linecap: round;  opacity: 1.000000"  d="M463.281966 192.720000L468.081966 195.120000L463.281966 197.520000"/>
</g>
<defs><path id="m30e32995789d870ad79a2e54c91cf9c6" d="M0.000000 0.000000L0.000000 -4.000000"/></defs>
<g ><use style="fill: none; stroke: #000000; stroke-width: 0.500000; stroke-linejoin: round; stroke-linecap: butt;  opacity: 1.000000" xlink:href="#m30e32995789d870ad79a2e54c91cf9c6" x="42.685714" y="195.120000"/>
<use style="fill: none; stroke: #000000; stroke-width: 0.500000; stroke-linejoin: round; stroke-linecap: butt;  opacity: 1.000000" xlink:href="#m30e32995789d870ad79a2e54c91cf9c6" x="42.685714" y="195.120000"/>
</g><g ><use style="fill: none; stroke: #000000; stroke-width: 0.500000; stroke-linejoin: round; stroke-linecap: butt;  opacity: 1.000000" xlink:href="#m30e32995789d870ad79a2e54c91cf9c6" x="106.457143" y="195.120000"/>
<use style="fill: none; stroke: #000000; stroke-width: 0.500000; stroke-linejoin: round; stroke-linecap: butt;  opacity: 1.000000" xlink:href="#m30e32995789d870ad79a2e54c91cf9c6" x="106.457143" y="195.120000"/>
</g><g ><use style="fill: none; stroke: #000000; stroke-width: 0.500000; stroke-linejoin: round; stroke-linecap: butt;  opacity: 1.000000" xlink:href="#m30e32995789d870ad79a2e54c91cf9c6" x="170.228571" y="195.120000"/>
<use style="fill: none; stroke: #000000; stroke-width: 0.500000; stroke-linejoin: round; stroke-linecap: butt;  opacity: 1.000000" xlink:href="#m30e32995789d870ad79a2e54c91cf9c6" x="170.228571" y="195.120000"/>
</g><g ><use style="fill: none; stroke: #000000; stroke-width: 0.500000; stroke-linejoin: round; stroke-linecap: butt;  opacity: 1.000000" xlink:href="#m30e32995789d870ad79a2e54c91cf9c6" x="234.000000" y="195.120000"/>
<use style="fill: none; stroke: #000000; stroke-width: 0.500000; stroke-linejoin: round; stroke-linecap: butt;  opacity: 1.000000" xlink:href="#m30e32995789d870ad79a2e54c91cf9c6" x="234.000000" y="195.120000"/>
</g><g ><use style="fill: none; stroke: #000000; stroke-width: 0.500000; stroke-linejoin: round; stroke-linecap: butt;  opacity: 1.000000" xlink:href="#m30e32995789d870ad79a2e54c91cf9c6" x="297.771429" y="195.120000"/>
<use style="fill: none; stroke: #000000; stroke-width: 0.500000; stroke-linejoin: round; stroke-linecap: butt;  opacity: 1.000000" xlink:href="#m30e32995789d870ad79a2e54c91cf9c6" x="297.771429" y="195.120000"/>
</g><g ><use style="fill: none; stroke: #000000; stroke-width: 0.500000; stroke-linejoin: round; stroke-linecap: butt;  opacity: 1.000000" xlink:href="#m30e32995789d870ad79a2e54c91cf9c6" x="361.542857" y="195.120000"/>
<use style="fill: none; stroke: #000000; stroke-width: 0.500000; stroke-linejoin: round; stroke-linecap: butt;  opacity: 1.000000" xlink:href="#m30e32995789d870ad79a2e54c91cf9c6" x="361.542857" y="195.120000"/>
</g><g ><use style="fill: none; stroke: #000000; stroke-width: 0.500000; stroke-linejoin: round; stroke-linecap: butt;  opacity: 1.000000" xlink:href="#m30e32995789d870ad79a2e54c91cf9c6" x="425.314286" y="195.120000"/>
<use style="fill: none; stroke: #000000; stroke-width: 0.500000; stroke-linejoin: round; stroke-linecap: butt;  opacity: 1.000000" xlink:href="#m30e32995789d870ad79a2e54c91cf9c6" x="425.314286" y="195.120000"/>
</g><g id="text1">
<defs>
<path id="c_7b26b13f539f13a4c64eef23b6952d29" d="M4.890625 -31.390625l26.312500 0.000000l0.000000 8.000000l-26.312500 0.000000z"/>
<path id="c_3dcfa38a02242cb63ec6726c6e70be7a" d="M40.578125 -39.312500q7.078125 1.515625 11.046875 6.312500q3.984375 4.781250 3.984375 11.812500q0.000000 10.781250 -7.421875 16.703125q-7.421875 5.906250 -21.093750 5.906250q-4.578125 0.000000 -9.437500 -0.906250q-4.859375 -0.906250 -10.031250 -2.718750l0.000000 -9.515625q4.093750 2.390625 8.968750 3.609375q4.890625 1.218750 10.218750 1.218750q9.265625 0.000000 14.125000 -3.656250q4.859375 -3.656250 4.859375 -10.640625q0.000000 -6.453125 -4.515625 -10.078125q-4.515625 -3.640625 -12.562500 -3.640625l-8.500000 0.000000l0.000000 -8.109375l8.890625 0.000000q7.265625 0.000000 11.125000 -2.906250q3.859375 -2.906250 3.859375 -8.375000q0.000000 -5.609375 -3.984375 -8.609375q-3.968750 -3.015625 -11.390625 -3.015625q-4.062500 0.000000 -8.703125 0.890625q-4.640625 0.875000 -10.203125 2.718750l0.000000 -8.781250q5.625000 -1.562500 10.531250 -2.343750q4.906250 -0.781250 9.250000 -0.781250q11.234375 0.000000 17.765625 5.109375q6.546875 5.093750 6.546875 13.781250q0.000000 6.062500 -3.468750 10.234375q-3.468750 4.171875 -9.859375 5.781250"/>
<path id="c_9e4b30cbdf32072672ded72e9074c4c9" d="M-0.296875 -72.906250l61.671875 0.000000l0.000000 8.312500l-25.875000 0.000000l0.000000 64.593750l-9.906250 0.000000l0.000000 -64.593750l-25.890625 0.000000z"/>
</defs>
<g style="fill: #000000; opacity: 1.000000" transform="translate(33.318527,208.026250)scale(0.120000)">
<use xlink:href="#c_7b26b13f539f13a4c64eef23b6952d29"/>
<use xlink:href="#c_3dcfa38a02242cb63ec6726c6e70be7a" x="36.083984"/>
<use xlink:href="#c_9e4b30cbdf32072672ded72e9074c4c9" x="99.707031"/>
</g>
</g>
<g id="text2">
<defs>
<path id="c_ed3f3ed3ebfbd18bcb9c012009a68ad1" d="M19.187500 -8.296875l34.421875 0.000000l0.000000 8.296875l-46.281250 0.000000l0.000000 -8.296875q5.609375 -5.812500 15.296875 -15.593750q9.703125 -9.796875 12.187500 -12.640625q4.734375 -5.312500 6.609375 -9.000000q1.890625 -3.687500 1.890625 -7.250000q0.000000 -5.812500 -4.078125 -9.468750q-4.078125 -3.671875 -10.625000 -3.671875q-4.640625 0.000000 -9.796875 1.609375q-5.140625 1.609375 -11.000000 4.890625l0.000000 -9.968750q5.953125 -2.390625 11.125000 -3.609375q5.187500 -1.218750 9.484375 -1.218750q11.328125 0.000000 18.062500 5.671875q6.734375 5.656250 6.734375 15.125000q0.000000 4.500000 -1.687500 8.531250q-1.671875 4.015625 -6.125000 9.484375q-1.218750 1.421875 -7.765625 8.187500q-6.531250 6.765625 -18.453125 18.921875"/>
</defs>
<g style="fill: #000000; opacity: 1.000000" transform="translate(97.089955,208.026250)scale(0.120000)">
<use xlink:href="#c_7b26b13f539f13a4c64eef23b6952d29"/>
<use xlink:href="#c_ed3f3ed3ebfbd18bcb9c012009a68ad1" x="36.083984"/>
<use xlink:href="#c_9e4b30cbdf32072672ded72e9074c4c9" x="99.707031"/>
</g>
</g>
<g id="text3">
<g style="fill: #000000; opacity: 1.000000" transform="translate(165.244196,208.026250)scale(0.120000)">
<use xlink:href="#c_7b26b13f539f13a4c64eef23b6952d29"/>
<use xlink:href="#c_9e4b30cbdf32072672ded72e9074c4c9" x="26.958984"/>
</g>
</g>
<g id="text4">
<defs>
<path id="c_7a2040fe3b94fcd41d0a72c84e93b115" d="M31.781250 -66.406250q-7.609375 0.000000 -11.453125 7.500000q-3.828125 7.484375 -3.828125 22.531250q0.000000 14.984375 3.828125 22.484375q3.843750 7.500000 11.453125 7.500000q7.671875 0.000000 11.500000 -7.500000q3.843750 -7.500000 3.843750 -22.484375q0.000000 -15.046875 -3.843750 -22.531250q-3.828125 -7.500000 -11.500000 -7.500000M31.781250 -74.218750q12.265625 0.000000 18.734375 9.703125q6.468750 9.687500 6.468750 28.140625q0.000000 18.406250 -6.468750 28.109375q-6.468750 9.687500 -18.734375 9.687500q-12.250000 0.000000 -18.718750 -9.687500q-6.468750 -9.703125 -6.468750 -28.109375q0.000000 -18.453125 6.468750 -28.140625q6.468750 -9.703125 18.718750 -9.703125"/>
</defs>
<g style="fill: #000000; opacity: 1.000000" transform="translate(230.976562,208.026250)scale(0.120000)">
<use xlink:href="#c_7a2040fe3b94fcd41d0a72c84e93b115"/>
</g>
</g>
<g id="text5">
<g style="fill: #000000; opacity: 1.000000" transform="translate(294.076116,208.026250)scale(0.120000)">
<use xlink:href="#c_9e4b30cbdf32072672ded72e9074c4c9"/>
</g>
</g>
<g id="text6">
<g style="fill: #000000; opacity: 1.000000" transform="translate(354.480357,208.026250)scale(0.120000)">
<use xlink:href="#c_ed3f3ed3ebfbd18bcb9c012009a68ad1"/>
<use xlink:href="#c_9e4b30cbdf32072672ded72e9074c4c9" x="63.623047"/>
</g>
</g>
<g id="text7">
<g style="fill: #000000; opacity: 1.000000" transform="translate(418.275223,208.026250)scale(0.120000)">
<use xlink:href="#c_3dcfa38a02242cb63ec6726c6e70be7a"/>
<use xlink:href="#c_9e4b30cbdf32072672ded72e9074c4c9" x="63.623047"/>
</g>
</g>
</g>
<g id="mpl_toolkits.axisartist.axis_artist2">
<g id="patch4">
<path style="fill: none; stroke: #000000; stroke-width: 1.000000; stroke-linejoin: round; stroke-linecap: round;  opacity: 1.000000"  d="M234.000000 241.200000L234.000000 10.800000L234.000000 -0.081966"/>
<path style="fill: none; stroke: #000000; stroke-width: 1.000000; stroke-linejoin: round; stroke-linecap: round;  opacity: 1.000000"  d="M231.600000 4.718034L234.000000 -0.081966L236.400000 4.718034"/>
</g>
<defs><path id="md8f9f6eeb0297809f71d2fac1eaece30" d="M0.000000 0.000000L-4.000000 -0.000000"/></defs>
<g ><use style="fill: none; stroke: #000000; stroke-width: 0.500000; stroke-linejoin: round; stroke-linecap: butt;  opacity: 1.000000" xlink:href="#md8f9f6eeb0297809f71d2fac1eaece30" x="234.000000" y="225.840000"/>
<use style="fill: none; stroke: #000000; stroke-width: 0.500000; stroke-linejoin: round; stroke-linecap: butt;  opacity: 1.000000" xlink:href="#md8f9f6eeb0297809f71d2fac1eaece30" x="234.000000" y="225.840000"/>
</g><g ><use style="fill: none; stroke: #000000; stroke-width: 0.500000; stroke-linejoin: round; stroke-linecap: butt;  opacity: 1.000000" xlink:href="#md8f9f6eeb0297809f71d2fac1eaece30" x="234.000000" y="195.120000"/>
<use style="fill: none; stroke: #000000; stroke-width: 0.500000; stroke-linejoin: round; stroke-linecap: butt;  opacity: 1.000000" xlink:href="#md8f9f6eeb0297809f71d2fac1eaece30" x="234.000000" y="195.120000"/>
</g><g ><use style="fill: none; stroke: #000000; stroke-width: 0.500000; stroke-linejoin: round; stroke-linecap: butt;  opacity: 1.000000" xlink:href="#md8f9f6eeb0297809f71d2fac1eaece30" x="234.000000" y="164.400000"/>
<use style="fill: none; stroke: #000000; stroke-width: 0.500000; stroke-linejoin: round; stroke-linecap: butt;  opacity: 1.000000" xlink:href="#md8f9f6eeb0297809f71d2fac1eaece30" x="234.000000" y="164.400000"/>
</g><g ><use style="fill: none; stroke: #000000; stroke-width: 0.500000; stroke-linejoin: round; stroke-linecap: butt;  opacity: 1.000000" xlink:href="#md8f9f6eeb0297809f71d2fac1eaece30" x="234.000000" y="133.680000"/>
<use style="fill: none; stroke: #000000; stroke-width: 0.500000; stroke-linejoin: round; stroke-linecap: butt;  opacity: 1.000000" xlink:href="#md8f9f6eeb0297809f71d2fac1eaece30" x="234.000000" y="133.680000"/>
</g><g ><use style="fill: none; stroke: #000000; stroke-width: 0.500000; stroke-linejoin: round; stroke-linecap: butt;  opacity: 1.000000" xlink:href="#md8f9f6eeb0297809f71d2fac1eaece30" x="234.000000" y="102.960000"/>
<use style="fill: none; stroke: #000000; stroke-width: 0.500000; stroke-linejoin: round; stroke-linecap: butt;  opacity: 1.000000" xlink:href="#md8f9f6eeb0297809f71d2fac1eaece30" x="234.000000" y="102.960000"/>
</g><g ><use style="fill: none; stroke: #000000; stroke-width: 0.500000; stroke-linejoin: round; stroke-linecap: butt;  opacity: 1.000000" xlink:href="#md8f9f6eeb0297809f71d2fac1eaece30" x="234.000000" y="72.240000"/>
<use style="fill: none; stroke: #000000; stroke-width: 0.500000; stroke-linejoin: round; stroke-linecap: butt;  opacity: 1.000000" xlink:href="#md8f9f6eeb0297809f71d2fac1eaece30" x="234.000000" y="72.240000"/>
</g><g ><use style="fill: none; stroke: #000000; stroke-width: 0.500000; stroke-linejoin: round; stroke-linecap: butt;  opacity: 1.000000" xlink:href="#md8f9f6eeb0297809f71d2fac1eaece30" x="234.000000" y="41.520000"/>
<use style="fill: none; stroke: #000000; stroke-width: 0.500000; stroke-linejoin: round; stroke-linecap: butt;  opacity: 1.000000" xlink:href="#md8f9f6eeb0297809f71d2fac1eaece30" x="234.000000" y="41.520000"/>
</g><g ><use style="fill: none; stroke: #000000; stroke-width: 0.500000; stroke-linejoin: round; stroke-linecap: butt;  opacity: 1.000000" xlink:href="#md8f9f6eeb0297809f71d2fac1eaece30" x="234.000000" y="10.800000"/>
<use style="fill: none; stroke: #000000; stroke-width: 0.500000; stroke-linejoin: round; stroke-linecap: butt;  opacity: 1.000000" xlink:href="#md8f9f6eeb0297809f71d2fac1eaece30" x="234.000000" y="10.800000"/>
</g></g>
<g id="text8">
<defs>
<path id="c_0f8c41144cfbf448378cb6fd1cc8e549" d="M18.312500 -70.218750l0.000000 15.531250l18.500000 0.000000l0.000000 6.984375l-18.500000 0.000000l0.000000 29.687500q0.000000 6.687500 1.828125 8.593750q1.828125 1.906250 7.453125 1.906250l9.218750 0.000000l0.000000 7.515625l-9.218750 0.000000q-10.406250 0.000000 -14.359375 -3.875000q-3.953125 -3.890625 -3.953125 -14.140625l0.000000 -29.687500l-6.593750 0.000000l0.000000 -6.984375l6.593750 0.000000l0.000000 -15.531250z"/>
</defs>
<g style="fill: #000000; opacity: 1.000000" transform="translate(457.200000,195.120000)scale(0.120000)">
<use xlink:href="#c_0f8c41144cfbf448378cb6fd1cc8e549"/>
</g>
</g>
<g id="text9">
<defs>
<path id="c_74d54c94aa871ec39e2bc6697dde6c00" d="M54.890625 -33.015625l0.000000 33.015625l-8.984375 0.000000l0.000000 -32.718750q0.000000 -7.765625 -3.031250 -11.609375q-3.031250 -3.859375 -9.078125 -3.859375q-7.281250 0.000000 -11.484375 4.640625q-4.203125 4.625000 -4.203125 12.640625l0.000000 30.906250l-9.031250 0.000000l0.000000 -75.984375l9.031250 0.000000l0.000000 29.796875q3.234375 -4.937500 7.593750 -7.375000q4.375000 -2.437500 10.093750 -2.437500q9.421875 0.000000 14.250000 5.828125q4.843750 5.828125 4.843750 17.156250"/>
<path id="c_7efa9804c2b4c09a4b614b91fdebee3d" d="M31.000000 -75.875000q-6.531250 11.218750 -9.718750 22.218750q-3.171875 10.984375 -3.171875 22.265625q0.000000 11.265625 3.203125 22.328125q3.203125 11.062500 9.687500 22.250000l-7.812500 0.000000q-7.312500 -11.484375 -10.953125 -22.562500q-3.640625 -11.078125 -3.640625 -22.015625q0.000000 -10.890625 3.609375 -21.921875q3.625000 -11.046875 10.984375 -22.562500z"/>
<path id="c_e96974be642f6eac0427d72f9cec6c19" d="M8.015625 -75.875000l7.812500 0.000000q7.312500 11.515625 10.953125 22.562500q3.640625 11.031250 3.640625 21.921875q0.000000 10.937500 -3.640625 22.015625q-3.640625 11.078125 -10.953125 22.562500l-7.812500 0.000000q6.484375 -11.187500 9.687500 -22.250000q3.203125 -11.062500 3.203125 -22.328125q0.000000 -11.281250 -3.203125 -22.265625q-3.203125 -11.000000 -9.687500 -22.218750"/>
</defs>
<g style="fill: #000000; opacity: 1.000000" transform="translate(240.377143,26.160000)scale(0.120000)">
<use xlink:href="#c_74d54c94aa871ec39e2bc6697dde6c00"/>
<use xlink:href="#c_7efa9804c2b4c09a4b614b91fdebee3d" x="63.378906"/>
<use xlink:href="#c_0f8c41144cfbf448378cb6fd1cc8e549" x="102.392578"/>
<use xlink:href="#c_e96974be642f6eac0427d72f9cec6c19" x="141.601562"/>
</g>
</g>
<g id="legend1">
<g id="patch5">
<path style="fill: #ffffff; stroke: #000000; stroke-width: 1.000000; stroke-linejoin: round; stroke-linecap: square;  opacity: 1.000000"  d="M349.160000 107.120000L450.000000 107.120000L450.000000 18.000000
L349.160000 18.000000L349.160000 107.120000z"/>
</g>
<g id="line2d5">
<path style="fill: none; stroke: #0000ff; stroke-width: 1.000000; stroke-linejoin: round; stroke-linecap: square;  opacity: 1.000000"  d="M359.240000 29.720000L379.400000 29.720000"/>
</g>
<g id="line2d6">
</g>
<g id="text10">
<defs>
<path id="c_69dc50131244cbd363528a547fd15b91" d="M2.687500 19.390625q-0.296875 0.000000 -0.546875 -0.343750q-0.234375 -0.343750 -0.234375 -0.640625l15.375000 -61.812500q1.328125 -4.984375 3.859375 -9.671875q2.546875 -4.687500 6.375000 -8.718750q3.828125 -4.031250 8.421875 -6.375000q4.593750 -2.343750 9.765625 -2.343750q3.718750 0.000000 6.718750 1.640625q3.000000 1.640625 4.734375 4.593750q1.734375 2.953125 1.734375 6.656250q0.000000 3.578125 -1.375000 6.828125q-1.359375 3.234375 -3.812500 6.046875q-2.437500 2.812500 -5.218750 4.562500q1.609375 1.031250 2.875000 2.625000q1.281250 1.578125 2.062500 3.312500q0.781250 1.734375 1.218750 3.859375q0.437500 2.125000 0.437500 3.968750q0.000000 5.125000 -2.203125 10.109375q-2.187500 4.984375 -5.984375 9.046875q-3.781250 4.046875 -8.671875 6.421875q-4.875000 2.359375 -10.000000 2.359375q-5.609375 0.000000 -10.109375 -3.078125q-4.484375 -3.078125 -6.187500 -8.343750l-7.234375 28.703125q0.000000 0.593750 -0.781250 0.593750zM28.421875 -1.218750q4.484375 0.000000 8.125000 -2.953125q3.640625 -2.953125 6.000000 -7.421875q2.375000 -4.468750 3.609375 -9.468750q1.250000 -5.015625 1.250000 -9.109375q0.000000 -5.078125 -2.921875 -8.015625q-3.421875 1.265625 -6.687500 1.265625q-7.906250 0.000000 -7.906250 -2.671875q0.000000 -3.515625 9.031250 -3.515625q3.218750 0.000000 5.906250 1.015625q2.140625 -1.656250 3.890625 -4.875000q1.765625 -3.234375 2.671875 -6.750000q0.906250 -3.515625 0.906250 -6.578125q0.000000 -3.281250 -1.734375 -5.453125q-1.734375 -2.171875 -5.046875 -2.171875q-6.109375 0.000000 -11.359375 3.765625q-5.250000 3.750000 -8.859375 9.500000q-3.609375 5.734375 -5.171875 11.828125l-5.531250 22.125000q-0.531250 2.296875 -0.671875 5.125000q0.000000 6.250000 4.093750 10.312500q4.109375 4.046875 10.406250 4.046875M32.906250 -39.890625q1.515625 0.390625 4.984375 0.390625q1.703125 0.000000 3.421875 -0.593750q-0.093750 -0.093750 -0.390625 -0.093750q-1.078125 -0.296875 -2.296875 -0.296875q-4.546875 0.000000 -5.718750 0.593750"/>
<path id="c_7bbc93c01755cdeb977d08bdfb9ce616" d="M7.515625 -13.281250q-0.828125 0.000000 -1.375000 -0.625000q-0.531250 -0.640625 -0.531250 -1.375000q0.000000 -0.828125 0.531250 -1.406250q0.546875 -0.593750 1.375000 -0.593750l62.796875 0.000000q0.734375 0.000000 1.265625 0.593750q0.546875 0.578125 0.546875 1.406250q0.000000 0.734375 -0.546875 1.375000q-0.531250 0.625000 -1.265625 0.625000zM7.515625 -32.718750q-0.828125 0.000000 -1.375000 -0.578125q-0.531250 -0.593750 -0.531250 -1.421875q0.000000 -0.734375 0.531250 -1.359375q0.546875 -0.640625 1.375000 -0.640625l62.796875 0.000000q0.734375 0.000000 1.265625 0.640625q0.546875 0.625000 0.546875 1.359375q0.000000 0.828125 -0.546875 1.421875q-0.531250 0.578125 -1.265625 0.578125z"/>
<path id="c_f47f2818876b2f1a61c47f270461e46e" d="M25.000000 2.203125q-12.250000 0.000000 -16.671875 -10.078125q-4.421875 -10.093750 -4.421875 -24.015625q0.000000 -8.687500 1.578125 -16.343750q1.593750 -7.671875 6.296875 -13.015625q4.718750 -5.359375 13.218750 -5.359375q6.593750 0.000000 10.781250 3.234375q4.203125 3.218750 6.406250 8.328125q2.203125 5.093750 3.000000 10.937500q0.812500 5.828125 0.812500 12.218750q0.000000 8.593750 -1.593750 16.093750q-1.578125 7.500000 -6.218750 12.750000q-4.640625 5.250000 -13.187500 5.250000M25.000000 -0.390625q5.562500 0.000000 8.296875 -5.703125q2.734375 -5.718750 3.375000 -12.656250q0.640625 -6.937500 0.640625 -14.750000q0.000000 -7.515625 -0.640625 -13.859375q-0.640625 -6.359375 -3.359375 -11.500000q-2.703125 -5.156250 -8.312500 -5.156250q-5.656250 0.000000 -8.390625 5.187500q-2.734375 5.171875 -3.375000 11.500000q-0.640625 6.312500 -0.640625 13.828125q0.000000 5.562500 0.265625 10.500000q0.281250 4.937500 1.453125 10.187500q1.171875 5.250000 3.781250 8.843750q2.609375 3.578125 6.906250 3.578125"/>
</defs>
<g id="mathtext1">
<g style="fill: #000000" transform="translate(395.240000,37.760000)">
<use xlink:href="#c_69dc50131244cbd363528a547fd15b91" transform="translate(0.000000,-3.859375)scale(0.144000)"/>
<use xlink:href="#c_7bbc93c01755cdeb977d08bdfb9ce616" transform="translate(10.656644,-3.859375)scale(0.144000)"/>
<use xlink:href="#c_f47f2818876b2f1a61c47f270461e46e" transform="translate(22.745935,-3.859375)scale(0.144000)"/>
</g>
</g>
</g>
<g id="line2d7">
<path style="fill: none; stroke: #008000; stroke-width: 1.000000; stroke-linejoin: round; stroke-linecap: square;  opacity: 1.000000"  d="M359.240000 50.920000L379.400000 50.920000"/>
</g>
<g id="line2d8">
</g>
<g id="text11">
<defs>
<path id="c_8b48a7401ae680eb5f4c605f13a7b112" d="M8.406250 -5.515625q0.000000 -2.250000 1.656250 -3.859375q1.656250 -1.609375 3.859375 -1.609375q1.359375 0.000000 2.671875 0.734375q1.328125 0.734375 2.062500 2.046875q0.734375 1.312500 0.734375 2.687500q0.000000 2.187500 -1.625000 3.859375q-1.609375 1.656250 -3.843750 1.656250q-2.203125 0.000000 -3.859375 -1.656250q-1.656250 -1.671875 -1.656250 -3.859375"/>
<path id="c_1210e7f4d85518601ea3049211d562d0" d="M4.984375 -0.000000l0.000000 -2.687500q0.000000 -0.250000 0.187500 -0.531250l15.531250 -17.187500q3.515625 -3.812500 5.703125 -6.390625q2.203125 -2.593750 4.343750 -5.968750q2.156250 -3.375000 3.406250 -6.859375q1.250000 -3.484375 1.250000 -7.390625q0.000000 -4.109375 -1.515625 -7.843750q-1.515625 -3.734375 -4.515625 -5.984375q-3.000000 -2.250000 -7.250000 -2.250000q-4.343750 0.000000 -7.812500 2.625000q-3.468750 2.609375 -4.890625 6.750000q0.390625 -0.093750 1.078125 -0.093750q2.250000 0.000000 3.828125 1.515625q1.593750 1.515625 1.593750 3.906250q0.000000 2.296875 -1.593750 3.890625q-1.578125 1.578125 -3.828125 1.578125q-2.343750 0.000000 -3.937500 -1.625000q-1.578125 -1.640625 -1.578125 -3.843750q0.000000 -3.765625 1.406250 -7.046875q1.421875 -3.296875 4.078125 -5.859375q2.671875 -2.578125 6.015625 -3.937500q3.343750 -1.375000 7.093750 -1.375000q5.718750 0.000000 10.640625 2.421875q4.937500 2.421875 7.812500 6.843750q2.890625 4.406250 2.890625 10.328125q0.000000 4.343750 -1.906250 8.250000q-1.906250 3.906250 -4.890625 7.109375q-2.968750 3.187500 -7.609375 7.250000q-4.640625 4.046875 -6.093750 5.406250l-11.328125 10.890625l9.609375 0.000000q7.078125 0.000000 11.843750 -0.109375q4.765625 -0.125000 5.046875 -0.375000q1.171875 -1.265625 2.406250 -9.234375l2.921875 0.000000l-2.828125 17.828125z"/>
<path id="c_7d09e94cce4bdf71f2297f5bbc354b76" d="M8.687500 -11.375000q1.031250 2.921875 3.156250 5.328125q2.125000 2.390625 5.031250 3.734375q2.906250 1.328125 6.031250 1.328125q7.218750 0.000000 9.953125 -5.609375q2.734375 -5.609375 2.734375 -13.625000q0.000000 -3.468750 -0.125000 -5.828125q-0.109375 -2.375000 -0.656250 -4.562500q-0.921875 -3.515625 -3.250000 -6.156250q-2.312500 -2.640625 -5.687500 -2.640625q-3.359375 0.000000 -5.781250 1.031250q-2.421875 1.015625 -3.937500 2.390625q-1.500000 1.359375 -2.671875 2.875000q-1.171875 1.515625 -1.468750 1.609375l-1.125000 0.000000q-0.250000 0.000000 -0.625000 -0.312500q-0.359375 -0.312500 -0.359375 -0.609375l0.000000 -33.406250q0.000000 -0.234375 0.312500 -0.500000q0.328125 -0.281250 0.671875 -0.281250l0.296875 0.000000q6.734375 3.234375 14.296875 3.234375q7.421875 0.000000 14.312500 -3.234375l0.296875 0.000000q0.343750 0.000000 0.625000 0.250000q0.296875 0.250000 0.296875 0.531250l0.000000 0.937500q0.000000 0.484375 -0.187500 0.484375q-3.421875 4.546875 -8.578125 7.093750q-5.156250 2.531250 -10.671875 2.531250q-4.000000 0.000000 -8.203125 -1.125000l0.000000 18.890625q3.328125 -2.687500 5.937500 -3.828125q2.609375 -1.156250 6.671875 -1.156250q5.515625 0.000000 9.875000 3.187500q4.375000 3.171875 6.718750 8.281250q2.343750 5.093750 2.343750 10.406250q0.000000 6.015625 -2.953125 11.140625q-2.953125 5.125000 -8.031250 8.156250q-5.078125 3.031250 -11.031250 3.031250q-4.937500 0.000000 -9.062500 -2.531250q-4.125000 -2.546875 -6.500000 -6.843750q-2.359375 -4.296875 -2.359375 -9.140625q0.000000 -2.250000 1.453125 -3.656250q1.468750 -1.421875 3.671875 -1.421875q2.203125 0.000000 3.687500 1.453125q1.484375 1.437500 1.484375 3.625000q0.000000 2.156250 -1.484375 3.640625q-1.484375 1.484375 -3.687500 1.484375q-0.343750 0.000000 -0.781250 -0.062500q-0.437500 -0.078125 -0.640625 -0.125000"/>
</defs>
<g id="mathtext2">
<g style="fill: #000000" transform="translate(395.240000,58.960000)">
<use xlink:href="#c_69dc50131244cbd363528a547fd15b91" transform="translate(0.000000,-3.859375)scale(0.144000)"/>
<use xlink:href="#c_7bbc93c01755cdeb977d08bdfb9ce616" transform="translate(10.656644,-3.859375)scale(0.144000)"/>
<use xlink:href="#c_f47f2818876b2f1a61c47f270461e46e" transform="translate(22.745935,-3.859375)scale(0.144000)"/>
<use xlink:href="#c_8b48a7401ae680eb5f4c605f13a7b112" transform="translate(29.941248,-3.859375)scale(0.144000)"/>
<use xlink:href="#c_1210e7f4d85518601ea3049211d562d0" transform="translate(34.046164,-3.859375)scale(0.144000)"/>
<use xlink:href="#c_7d09e94cce4bdf71f2297f5bbc354b76" transform="translate(41.241476,-3.859375)scale(0.144000)"/>
</g>
</g>
</g>
<g id="line2d9">
<path style="fill: none; stroke: #ff0000; stroke-width: 1.000000; stroke-linejoin: round; stroke-linecap: square;  opacity: 1.000000"  d="M359.240000 72.120000L379.400000 72.120000"/>
</g>
<g id="line2d10">
</g>
<g id="text12">
<g id="mathtext3">
<g style="fill: #000000" transform="translate(395.240000,80.160000)">
<use xlink:href="#c_69dc50131244cbd363528a547fd15b91" transform="translate(0.000000,-3.859375)scale(0.144000)"/>
<use xlink:href="#c_7bbc93c01755cdeb977d08bdfb9ce616" transform="translate(10.656644,-3.859375)scale(0.144000)"/>
<use xlink:href="#c_f47f2818876b2f1a61c47f270461e46e" transform="translate(22.745935,-3.859375)scale(0.144000)"/>
<use xlink:href="#c_8b48a7401ae680eb5f4c605f13a7b112" transform="translate(29.941248,-3.859375)scale(0.144000)"/>
<use xlink:href="#c_7d09e94cce4bdf71f2297f5bbc354b76" transform="translate(34.046164,-3.859375)scale(0.144000)"/>
</g>
</g>
</g>
<g id="line2d11">
<path style="fill: none; stroke: #00bfbf; stroke-width: 1.000000; stroke-linejoin: round; stroke-linecap: square;  opacity: 1.000000"  d="M359.240000 93.320000L379.400000 93.320000"/>
</g>
<g id="line2d12">
</g>
<g id="text13">
<defs>
<path id="c_1a459ac34855d27ec37ccb0e66298d36" d="M9.281250 -0.000000l0.000000 -3.515625q12.500000 0.000000 12.500000 -3.171875l0.000000 -52.500000q-5.171875 2.500000 -13.093750 2.500000l0.000000 -3.515625q12.265625 0.000000 18.515625 -6.406250l1.406250 0.000000q0.343750 0.000000 0.656250 0.281250q0.328125 0.265625 0.328125 0.609375l0.000000 59.031250q0.000000 3.171875 12.500000 3.171875l0.000000 3.515625z"/>
</defs>
<g id="mathtext4">
<g style="fill: #000000" transform="translate(395.240000,101.360000)">
<use xlink:href="#c_69dc50131244cbd363528a547fd15b91" transform="translate(0.000000,-3.859375)scale(0.144000)"/>
<use xlink:href="#c_7bbc93c01755cdeb977d08bdfb9ce616" transform="translate(10.656644,-3.859375)scale(0.144000)"/>
<use xlink:href="#c_1a459ac34855d27ec37ccb0e66298d36" transform="translate(22.745935,-3.859375)scale(0.144000)"/>
</g>
</g>
</g>
</g>
</g>
</g>
</svg>
