<?xml version="1.0" standalone="no"?>
<!DOCTYPE svg PUBLIC "-//W3C//DTD SVG 1.1//EN"
  "http://www.w3.org/Graphics/SVG/1.1/DTD/svg11.dtd">
<!-- Created with matplotlib (http://matplotlib.sourceforge.net/) -->
<svg width="468pt" height="251pt" viewBox="0 0 468 251"
   xmlns="http://www.w3.org/2000/svg"
   xmlns:xlink="http://www.w3.org/1999/xlink"
   version="1.1"
   id="svg1">
<filter id="colorAdd"><feComposite in="SourceGraphic" in2="BackgroundImage" operator="arithmetic" k2="1" k3="1"/></filter>
<g id="figure1">
<g id="patch1">
<path style="fill: #ffffff; stroke: #ffffff; stroke-width: 1.000000; stroke-linejoin: round; stroke-linecap: square;  opacity: 1.000000"  d="M0.000000 252.000000L468.000000 252.000000L468.000000 0.000000
L0.000000 0.000000z"/>
</g>
<g id="axes1">
<g id="patch2">
<path style="fill: #ffffff; opacity: 1.000000"  d="M10.800000 241.200000L457.200000 241.200000L457.200000 10.800000
L10.800000 10.800000z"/>
</g>
<g id="line2d1">
<defs>
  <clipPath id="p74e9fb01270ddec5f61cbf79e21602c6">
<rect x="10.800000" y="10.800000" width="446.400000" height="230.400000"/>
  </clipPath>
</defs><path style="fill: none; stroke: #0000ff; stroke-width: 1.000000; stroke-linejoin: round; stroke-linecap: square;  opacity: 1.000000" clip-path="url(#p74e9fb01270ddec5f61cbf79e21602c6)" d="M10.8,195.12 H144.72 V41.52 H323.28 V195.12 H457.2"/>
</g>
<g id="line2d2">
<path style="fill: none; stroke: #008000; stroke-width: 1.000000; stroke-linejoin: round; stroke-linecap: square;  opacity: 1.000000" clip-path="url(#p74e9fb01270ddec5f61cbf79e21602c6)"
d="M10.8,195.12 H122.4 C130.39,195.12 137.28,158.53 144.72,118.32 S159.05,41.52 167.04,41.52 H300.96 C308.95,41.52 315.84,78.11 323.28,118.32 S337.61,195.12 345.6,195.12 H457.2"/>
</g>
<g id="line2d3">
<path style="fill: none; stroke: #ff0000; stroke-width: 1.000000; stroke-linejoin: round; stroke-linecap: square;  opacity: 1.000000" clip-path="url(#p74e9fb01270ddec5f61cbf79e21602c6)" d="M10.800000 195.120000L15.309091 195.120000L19.818182 195.120000
L24.327273 195.120000L28.836364 195.120000L33.345455 195.120000
L37.854545 195.120000L42.363636 195.120000L46.872727 195.120000
L51.381818 195.120000L55.890909 195.120000L60.400000 195.120000
L64.909091 195.120000L69.418182 195.120000L73.927273 195.120000
L78.436364 195.120000L82.945455 195.120000L87.454545 195.120000
L91.963636 195.120000L96.472727 195.120000L100.981818 195.081334
L105.490909 193.732124L110.000000 190.488393L114.509091 185.431632
L119.018182 178.688878L123.527273 170.429523L128.036364 160.861061
L132.545455 150.223873L137.054545 138.785189L141.563636 126.832374
L146.072727 114.665709L150.581818 102.590848L155.090909 90.911138
L159.600000 79.920000L164.109091 69.893555L168.618182 61.083690
L173.127273 53.711729L177.636364 47.962870L182.145455 43.981540
L186.654545 41.867756L191.163636 41.520000L195.672727 41.520000
L200.181818 41.520000L204.690909 41.520000L209.200000 41.520000
L213.709091 41.520000L218.218182 41.520000L222.727273 41.520000
L227.236364 41.520000L231.745455 41.520000L236.254545 41.520000
L240.763636 41.520000L245.272727 41.520000L249.781818 41.520000
L254.290909 41.520000L258.800000 41.520000L263.309091 41.520000
L267.818182 41.520000L272.327273 41.520000L276.836364 41.520000
L281.345455 41.867756L285.854545 43.981540L290.363636 47.962870
L294.872727 53.711729L299.381818 61.083690L303.890909 69.893555
L308.400000 79.920000L312.909091 90.911138L317.418182 102.590848
L321.927273 114.665709L326.436364 126.832374L330.945455 138.785189
L335.454545 150.223873L339.963636 160.861061L344.472727 170.429523
L348.981818 178.688878L353.490909 185.431632L358.000000 190.488393
L362.509091 193.732124L367.018182 195.081334L371.527273 195.120000
L376.036364 195.120000L380.545455 195.120000L385.054545 195.120000
L389.563636 195.120000L394.072727 195.120000L398.581818 195.120000
L403.090909 195.120000L407.600000 195.120000L412.109091 195.120000
L416.618182 195.120000L421.127273 195.120000L425.636364 195.120000
L430.145455 195.120000L434.654545 195.120000L439.163636 195.120000
L443.672727 195.120000L448.181818 195.120000L452.690909 195.120000
L457.200000 195.120000"/>
</g>
<g id="line2d4">
<path style="fill: none; stroke: #00bfbf; stroke-width: 1.000000; stroke-linejoin: round; stroke-linecap: square;  opacity: 1.000000" clip-path="url(#p74e9fb01270ddec5f61cbf79e21602c6)" d="M10.800000 195.120000L15.309091 195.120000L19.818182 195.120000
L24.327273 195.120000L28.836364 195.120000L33.345455 195.120000
L37.854545 195.120000L42.363636 195.120000L46.872727 195.120000
L51.381818 195.120000L55.890909 195.117583L60.400000 194.827753
L64.909091 194.056654L69.418182 192.809138L73.927273 191.093052
L78.436364 188.919191L82.945455 186.301230L87.454545 183.255636
L91.963636 179.801567L96.472727 175.960752L100.981818 171.757351
L105.490909 167.217805L110.000000 162.370670L114.509091 157.246437
L119.018182 151.877339L123.527273 146.297150L128.036364 140.540972
L132.545455 134.645014L137.054545 128.646365L141.563636 122.582758
L146.072727 116.492337L150.581818 110.413412L155.090909 104.384224
L159.600000 98.442697L164.109091 92.626208L168.618182 86.971344
L173.127273 81.513678L177.636364 76.287539L182.145455 71.325804
L186.654545 66.659683L191.163636 62.318529L195.672727 58.329649
L200.181818 54.718135L204.690909 51.506706L209.200000 48.715562
L213.709091 46.362261L218.218182 44.461607L222.727273 43.025555
L227.236364 42.063138L231.745455 41.580412L236.254545 41.580412
L240.763636 42.063138L245.272727 43.025555L249.781818 44.461607
L254.290909 46.362261L258.800000 48.715562L263.309091 51.506706
L267.818182 54.718135L272.327273 58.329649L276.836364 62.318529
L281.345455 66.659683L285.854545 71.325804L290.363636 76.287539
L294.872727 81.513678L299.381818 86.971344L303.890909 92.626208
L308.400000 98.442697L312.909091 104.384224L317.418182 110.413412
L321.927273 116.492337L326.436364 122.582758L330.945455 128.646365
L335.454545 134.645014L339.963636 140.540972L344.472727 146.297150
L348.981818 151.877339L353.490909 157.246437L358.000000 162.370670
L362.509091 167.217805L367.018182 171.757351L371.527273 175.960752
L376.036364 179.801567L380.545455 183.255636L385.054545 186.301230
L389.563636 188.919191L394.072727 191.093052L398.581818 192.809138
L403.090909 194.056654L407.600000 194.827753L412.109091 195.117583
L416.618182 195.120000L421.127273 195.120000L425.636364 195.120000
L430.145455 195.120000L434.654545 195.120000L439.163636 195.120000
L443.672727 195.120000L448.181818 195.120000L452.690909 195.120000
L457.200000 195.120000"/>
</g>
<g id="GridlinesCollection1">
<defs>
<path id="coll0_0_615effad991ef2794799ec006594f301" d="M55.440000 -10.800000L55.440000 -241.200000"/>
<path id="coll0_1_01cf7b89e795f74047d209c4d1dd3685" d="M144.720000 -10.800000L144.720000 -241.200000"/>
<path id="coll0_2_c9e410fa189b1852806514e0dc6047c4" d="M234.000000 -10.800000L234.000000 -241.200000"/>
<path id="coll0_3_c13c51ea44ff39125c52332769bfd523" d="M323.280000 -10.800000L323.280000 -241.200000"/>
<path id="coll0_4_f178ebe591e152a763b29a21a6215ecf" d="M412.560000 -10.800000L412.560000 -241.200000"/>
<path id="coll0_5_57939f14fbd122633cd4f543106aee14" d="M10.800000 4.560000L457.200000 4.560000"/>
<path id="coll0_6_50c46f9e7cb483a757a68a60ed2b1568" d="M10.800000 -26.160000L457.200000 -26.160000"/>
<path id="coll0_7_5371c145652c1939db6ce2c273607857" d="M10.800000 -56.880000L457.200000 -56.880000"/>
<path id="coll0_8_c79e6828828b8ea11b5cd92fc8144271" d="M10.800000 -87.600000L457.200000 -87.600000"/>
<path id="coll0_9_852b94f099ee612a2b931328cb40f440" d="M10.800000 -118.320000L457.200000 -118.320000"/>
<path id="coll0_a_6b6fcdabb75a8cd4cbfca2a0ec72862f" d="M10.800000 -149.040000L457.200000 -149.040000"/>
<path id="coll0_b_8c2f3e24f4dc9217b7eb8e400190550a" d="M10.800000 -179.760000L457.200000 -179.760000"/>
<path id="coll0_c_6e4fa5e5063656422fdb183f2b91fcbe" d="M10.800000 -210.480000L457.200000 -210.480000"/>
<path id="coll0_d_3b2414302e1e140eefbe2932da9df739" d="M10.800000 -241.200000L457.200000 -241.200000"/>
<path id="coll0_e_94a074126ba3a2645696dbae66a38b6f" d="M10.800000 -271.920000L457.200000 -271.920000"/>
</defs>
<g clip-path="url(#p74e9fb01270ddec5f61cbf79e21602c6)"><use style="fill: none; stroke: #000000; stroke-width: 0.500000; stroke-linejoin: round; stroke-linecap: butt; stroke-dasharray: 1.000000,3.000000; stroke-dashoffset: 0.000000; opacity: 1.000000" xlink:href="#coll0_0_615effad991ef2794799ec006594f301" x="0.000000" y="252.000000"/>
</g><g clip-path="url(#p74e9fb01270ddec5f61cbf79e21602c6)"><use style="fill: none; stroke: #000000; stroke-width: 0.500000; stroke-linejoin: round; stroke-linecap: butt; stroke-dasharray: 1.000000,3.000000; stroke-dashoffset: 0.000000; opacity: 1.000000" xlink:href="#coll0_1_01cf7b89e795f74047d209c4d1dd3685" x="0.000000" y="252.000000"/>
</g><g clip-path="url(#p74e9fb01270ddec5f61cbf79e21602c6)"><use style="fill: none; stroke: #000000; stroke-width: 0.500000; stroke-linejoin: round; stroke-linecap: butt; stroke-dasharray: 1.000000,3.000000; stroke-dashoffset: 0.000000; opacity: 1.000000" xlink:href="#coll0_2_c9e410fa189b1852806514e0dc6047c4" x="0.000000" y="252.000000"/>
</g><g clip-path="url(#p74e9fb01270ddec5f61cbf79e21602c6)"><use style="fill: none; stroke: #000000; stroke-width: 0.500000; stroke-linejoin: round; stroke-linecap: butt; stroke-dasharray: 1.000000,3.000000; stroke-dashoffset: 0.000000; opacity: 1.000000" xlink:href="#coll0_3_c13c51ea44ff39125c52332769bfd523" x="0.000000" y="252.000000"/>
</g><g clip-path="url(#p74e9fb01270ddec5f61cbf79e21602c6)"><use style="fill: none; stroke: #000000; stroke-width: 0.500000; stroke-linejoin: round; stroke-linecap: butt; stroke-dasharray: 1.000000,3.000000; stroke-dashoffset: 0.000000; opacity: 1.000000" xlink:href="#coll0_4_f178ebe591e152a763b29a21a6215ecf" x="0.000000" y="252.000000"/>
</g><g clip-path="url(#p74e9fb01270ddec5f61cbf79e21602c6)"><use style="fill: none; stroke: #000000; stroke-width: 0.500000; stroke-linejoin: round; stroke-linecap: butt; stroke-dasharray: 1.000000,3.000000; stroke-dashoffset: 0.000000; opacity: 1.000000" xlink:href="#coll0_5_57939f14fbd122633cd4f543106aee14" x="0.000000" y="252.000000"/>
</g><g clip-path="url(#p74e9fb01270ddec5f61cbf79e21602c6)"><use style="fill: none; stroke: #000000; stroke-width: 0.500000; stroke-linejoin: round; stroke-linecap: butt; stroke-dasharray: 1.000000,3.000000; stroke-dashoffset: 0.000000; opacity: 1.000000" xlink:href="#coll0_6_50c46f9e7cb483a757a68a60ed2b1568" x="0.000000" y="252.000000"/>
</g><g clip-path="url(#p74e9fb01270ddec5f61cbf79e21602c6)"><use style="fill: none; stroke: #000000; stroke-width: 0.500000; stroke-linejoin: round; stroke-linecap: butt; stroke-dasharray: 1.000000,3.000000; stroke-dashoffset: 0.000000; opacity: 1.000000" xlink:href="#coll0_7_5371c145652c1939db6ce2c273607857" x="0.000000" y="252.000000"/>
</g><g clip-path="url(#p74e9fb01270ddec5f61cbf79e21602c6)"><use style="fill: none; stroke: #000000; stroke-width: 0.500000; stroke-linejoin: round; stroke-linecap: butt; stroke-dasharray: 1.000000,3.000000; stroke-dashoffset: 0.000000; opacity: 1.000000" xlink:href="#coll0_8_c79e6828828b8ea11b5cd92fc8144271" x="0.000000" y="252.000000"/>
</g><g clip-path="url(#p74e9fb01270ddec5f61cbf79e21602c6)"><use style="fill: none; stroke: #000000; stroke-width: 0.500000; stroke-linejoin: round; stroke-linecap: butt; stroke-dasharray: 1.000000,3.000000; stroke-dashoffset: 0.000000; opacity: 1.000000" xlink:href="#coll0_9_852b94f099ee612a2b931328cb40f440" x="0.000000" y="252.000000"/>
</g><g clip-path="url(#p74e9fb01270ddec5f61cbf79e21602c6)"><use style="fill: none; stroke: #000000; stroke-width: 0.500000; stroke-linejoin: round; stroke-linecap: butt; stroke-dasharray: 1.000000,3.000000; stroke-dashoffset: 0.000000; opacity: 1.000000" xlink:href="#coll0_a_6b6fcdabb75a8cd4cbfca2a0ec72862f" x="0.000000" y="252.000000"/>
</g><g clip-path="url(#p74e9fb01270ddec5f61cbf79e21602c6)"><use style="fill: none; stroke: #000000; stroke-width: 0.500000; stroke-linejoin: round; stroke-linecap: butt; stroke-dasharray: 1.000000,3.000000; stroke-dashoffset: 0.000000; opacity: 1.000000" xlink:href="#coll0_b_8c2f3e24f4dc9217b7eb8e400190550a" x="0.000000" y="252.000000"/>
</g><g clip-path="url(#p74e9fb01270ddec5f61cbf79e21602c6)"><use style="fill: none; stroke: #000000; stroke-width: 0.500000; stroke-linejoin: round; stroke-linecap: butt; stroke-dasharray: 1.000000,3.000000; stroke-dashoffset: 0.000000; opacity: 1.000000" xlink:href="#coll0_c_6e4fa5e5063656422fdb183f2b91fcbe" x="0.000000" y="252.000000"/>
</g><g clip-path="url(#p74e9fb01270ddec5f61cbf79e21602c6)"><use style="fill: none; stroke: #000000; stroke-width: 0.500000; stroke-linejoin: round; stroke-linecap: butt; stroke-dasharray: 1.000000,3.000000; stroke-dashoffset: 0.000000; opacity: 1.000000" xlink:href="#coll0_d_3b2414302e1e140eefbe2932da9df739" x="0.000000" y="252.000000"/>
</g><g clip-path="url(#p74e9fb01270ddec5f61cbf79e21602c6)"><use style="fill: none; stroke: #000000; stroke-width: 0.500000; stroke-linejoin: round; stroke-linecap: butt; stroke-dasharray: 1.000000,3.000000; stroke-dashoffset: 0.000000; opacity: 1.000000" xlink:href="#coll0_e_94a074126ba3a2645696dbae66a38b6f" x="0.000000" y="252.000000"/>
</g></g>
<g id="mpl_toolkits.axisartist.axis_artist1">
<g id="patch3">
<path style="fill: none; stroke: #000000; stroke-width: 1.000000; stroke-linejoin: round; stroke-linecap: round;  opacity: 1.000000"  d="M10.800000 195.120000L457.200000 195.120000L468.081966 195.120000"/>
<path style="fill: #0000ff; stroke: #000000; stroke-width: 1.000000; stroke-linejoin: round; stroke-linecap: round;  opacity: 1.000000"  d="M463.281966 192.720000L468.081966 195.120000L463.281966 197.520000
L463.281966 192.720000z"/>
</g>
<defs><path id="m30e32995789d870ad79a2e54c91cf9c6" d="M0.000000 0.000000L0.000000 -4.000000"/></defs>
<g ><use style="fill: none; stroke: #000000; stroke-width: 0.500000; stroke-linejoin: round; stroke-linecap: butt;  opacity: 1.000000" xlink:href="#m30e32995789d870ad79a2e54c91cf9c6" x="55.440000" y="195.120000"/>
<use style="fill: none; stroke: #000000; stroke-width: 0.500000; stroke-linejoin: round; stroke-linecap: butt;  opacity: 1.000000" xlink:href="#m30e32995789d870ad79a2e54c91cf9c6" x="55.440000" y="195.120000"/>
</g><g ><use style="fill: none; stroke: #000000; stroke-width: 0.500000; stroke-linejoin: round; stroke-linecap: butt;  opacity: 1.000000" xlink:href="#m30e32995789d870ad79a2e54c91cf9c6" x="144.720000" y="195.120000"/>
<use style="fill: none; stroke: #000000; stroke-width: 0.500000; stroke-linejoin: round; stroke-linecap: butt;  opacity: 1.000000" xlink:href="#m30e32995789d870ad79a2e54c91cf9c6" x="144.720000" y="195.120000"/>
</g><g ><use style="fill: none; stroke: #000000; stroke-width: 0.500000; stroke-linejoin: round; stroke-linecap: butt;  opacity: 1.000000" xlink:href="#m30e32995789d870ad79a2e54c91cf9c6" x="234.000000" y="195.120000"/>
<use style="fill: none; stroke: #000000; stroke-width: 0.500000; stroke-linejoin: round; stroke-linecap: butt;  opacity: 1.000000" xlink:href="#m30e32995789d870ad79a2e54c91cf9c6" x="234.000000" y="195.120000"/>
</g><g ><use style="fill: none; stroke: #000000; stroke-width: 0.500000; stroke-linejoin: round; stroke-linecap: butt;  opacity: 1.000000" xlink:href="#m30e32995789d870ad79a2e54c91cf9c6" x="323.280000" y="195.120000"/>
<use style="fill: none; stroke: #000000; stroke-width: 0.500000; stroke-linejoin: round; stroke-linecap: butt;  opacity: 1.000000" xlink:href="#m30e32995789d870ad79a2e54c91cf9c6" x="323.280000" y="195.120000"/>
</g><g ><use style="fill: none; stroke: #000000; stroke-width: 0.500000; stroke-linejoin: round; stroke-linecap: butt;  opacity: 1.000000" xlink:href="#m30e32995789d870ad79a2e54c91cf9c6" x="412.560000" y="195.120000"/>
<use style="fill: none; stroke: #000000; stroke-width: 0.500000; stroke-linejoin: round; stroke-linecap: butt;  opacity: 1.000000" xlink:href="#m30e32995789d870ad79a2e54c91cf9c6" x="412.560000" y="195.120000"/>
</g><g id="text1">
<defs>
<path id="c_61c20b1e4c944de7566e5fda525fb070" d="M10.203125 -23.000000q-0.828125 0.000000 -1.375000 -0.625000q-0.531250 -0.640625 -0.531250 -1.375000q0.000000 -0.734375 0.531250 -1.359375q0.546875 -0.640625 1.375000 -0.640625l57.375000 0.000000q0.781250 0.000000 1.296875 0.640625q0.515625 0.625000 0.515625 1.359375q0.000000 0.734375 -0.515625 1.375000q-0.515625 0.625000 -1.296875 0.625000z"/>
<path id="c_1a459ac34855d27ec37ccb0e66298d36" d="M9.281250 -0.000000l0.000000 -3.515625q12.500000 0.000000 12.500000 -3.171875l0.000000 -52.500000q-5.171875 2.500000 -13.093750 2.500000l0.000000 -3.515625q12.265625 0.000000 18.515625 -6.406250l1.406250 0.000000q0.343750 0.000000 0.656250 0.281250q0.328125 0.265625 0.328125 0.609375l0.000000 59.031250q0.000000 3.171875 12.500000 3.171875l0.000000 3.515625z"/>
<path id="c_4af9599587a0091f79c2f694637ff61b" d="M4.593750 -1.312500q0.046875 -0.250000 0.218750 -0.875000q0.171875 -0.640625 0.437500 -0.984375q0.265625 -0.343750 0.750000 -0.343750q8.593750 0.000000 11.390625 -0.484375q2.671875 -0.687500 3.218750 -2.890625l13.671875 -54.921875q0.437500 -1.218750 0.437500 -2.203125q0.000000 -0.781250 -3.515625 -0.781250l-5.812500 0.000000q-6.687500 0.000000 -10.328125 2.062500q-3.640625 2.046875 -5.343750 5.421875q-1.703125 3.359375 -4.390625 11.015625q-0.343750 0.890625 -1.031250 0.890625l-0.875000 0.000000q-1.031250 0.000000 -1.031250 -1.281250l7.125000 -20.703125q0.203125 -0.921875 0.984375 -0.921875l59.078125 0.000000q1.031250 0.000000 1.031250 1.312500l-3.328125 20.703125q0.000000 0.296875 -0.343750 0.593750q-0.328125 0.296875 -0.625000 0.296875l-0.937500 0.000000q-0.968750 0.000000 -0.968750 -1.281250q1.078125 -7.078125 1.078125 -10.000000q0.000000 -3.515625 -1.468750 -5.312500q-1.468750 -1.812500 -3.812500 -2.296875q-2.343750 -0.500000 -6.093750 -0.500000l-5.921875 0.000000q-2.671875 0.000000 -3.609375 0.500000q-0.921875 0.484375 -1.562500 2.921875l-13.718750 54.875000q-0.046875 0.203125 -0.078125 0.406250q-0.015625 0.187500 -0.109375 0.484375q0.000000 1.265625 1.500000 1.609375q2.593750 0.484375 11.093750 0.484375q0.968750 0.000000 0.968750 1.312500q-0.343750 1.421875 -0.546875 1.812500q-0.187500 0.390625 -1.109375 0.390625l-35.406250 0.000000q-1.015625 0.000000 -1.015625 -1.312500"/>
</defs>
<g id="mathtext1">
<g style="fill: #000000" transform="translate(47.440000,215.120000)">
<use xlink:href="#c_61c20b1e4c944de7566e5fda525fb070" transform="translate(0.000000,-5.900000)scale(0.120000)"/>
<use xlink:href="#c_1a459ac34855d27ec37ccb0e66298d36" transform="translate(9.322266,-10.400000)scale(0.084000)"/>
<use xlink:href="#c_4af9599587a0091f79c2f694637ff61b" transform="translate(9.322266,-0.907813)scale(0.084000)"/>
</g>
<g style="fill: #000000; stroke: none" transform="translate(47.440000,215.120000)">
<rect x="9.322266" y="-8.400000" width="4.905469" height="0.750000" fill="black" stroke="none" /></g></g>
</g>
<g id="text2">
<defs>
<path id="c_1210e7f4d85518601ea3049211d562d0" d="M4.984375 -0.000000l0.000000 -2.687500q0.000000 -0.250000 0.187500 -0.531250l15.531250 -17.187500q3.515625 -3.812500 5.703125 -6.390625q2.203125 -2.593750 4.343750 -5.968750q2.156250 -3.375000 3.406250 -6.859375q1.250000 -3.484375 1.250000 -7.390625q0.000000 -4.109375 -1.515625 -7.843750q-1.515625 -3.734375 -4.515625 -5.984375q-3.000000 -2.250000 -7.250000 -2.250000q-4.343750 0.000000 -7.812500 2.625000q-3.468750 2.609375 -4.890625 6.750000q0.390625 -0.093750 1.078125 -0.093750q2.250000 0.000000 3.828125 1.515625q1.593750 1.515625 1.593750 3.906250q0.000000 2.296875 -1.593750 3.890625q-1.578125 1.578125 -3.828125 1.578125q-2.343750 0.000000 -3.937500 -1.625000q-1.578125 -1.640625 -1.578125 -3.843750q0.000000 -3.765625 1.406250 -7.046875q1.421875 -3.296875 4.078125 -5.859375q2.671875 -2.578125 6.015625 -3.937500q3.343750 -1.375000 7.093750 -1.375000q5.718750 0.000000 10.640625 2.421875q4.937500 2.421875 7.812500 6.843750q2.890625 4.406250 2.890625 10.328125q0.000000 4.343750 -1.906250 8.250000q-1.906250 3.906250 -4.890625 7.109375q-2.968750 3.187500 -7.609375 7.250000q-4.640625 4.046875 -6.093750 5.406250l-11.328125 10.890625l9.609375 0.000000q7.078125 0.000000 11.843750 -0.109375q4.765625 -0.125000 5.046875 -0.375000q1.171875 -1.265625 2.406250 -9.234375l2.921875 0.000000l-2.828125 17.828125z"/>
</defs>
<g id="mathtext2">
<g style="fill: #000000" transform="translate(134.720000,215.120000)">
<use xlink:href="#c_61c20b1e4c944de7566e5fda525fb070" transform="translate(0.000000,-5.900000)scale(0.120000)"/>
<use xlink:href="#c_1a459ac34855d27ec37ccb0e66298d36" transform="translate(11.322266,-10.400000)scale(0.084000)"/>
<use xlink:href="#c_1210e7f4d85518601ea3049211d562d0" transform="translate(9.322266,-0.907813)scale(0.084000)"/>
<use xlink:href="#c_4af9599587a0091f79c2f694637ff61b" transform="translate(13.522266,-0.907813)scale(0.084000)"/>
</g>
<g style="fill: #000000; stroke: none" transform="translate(134.720000,215.120000)">
<rect x="9.322266" y="-8.400000" width="9.105469" height="0.750000" fill="black" stroke="none" /></g></g>
</g>
<g id="text3">
<defs>
<path id="c_7a2040fe3b94fcd41d0a72c84e93b115" d="M31.781250 -66.406250q-7.609375 0.000000 -11.453125 7.500000q-3.828125 7.484375 -3.828125 22.531250q0.000000 14.984375 3.828125 22.484375q3.843750 7.500000 11.453125 7.500000q7.671875 0.000000 11.500000 -7.500000q3.843750 -7.500000 3.843750 -22.484375q0.000000 -15.046875 -3.843750 -22.531250q-3.828125 -7.500000 -11.500000 -7.500000M31.781250 -74.218750q12.265625 0.000000 18.734375 9.703125q6.468750 9.687500 6.468750 28.140625q0.000000 18.406250 -6.468750 28.109375q-6.468750 9.687500 -18.734375 9.687500q-12.250000 0.000000 -18.718750 -9.687500q-6.468750 -9.703125 -6.468750 -28.109375q0.000000 -18.453125 6.468750 -28.140625q6.468750 -9.703125 18.718750 -9.703125"/>
</defs>
<g style="fill: #000000; opacity: 1.000000" transform="translate(230.976562,210.120000)scale(0.120000)">
<use xlink:href="#c_7a2040fe3b94fcd41d0a72c84e93b115"/>
</g>
</g>
<g id="text4">
<g id="mathtext3">
<g style="fill: #000000" transform="translate(317.780000,215.120000)">
<use xlink:href="#c_1a459ac34855d27ec37ccb0e66298d36" transform="translate(2.000000,-10.400000)scale(0.084000)"/>
<use xlink:href="#c_1210e7f4d85518601ea3049211d562d0" transform="translate(0.000000,-0.907813)scale(0.084000)"/>
<use xlink:href="#c_4af9599587a0091f79c2f694637ff61b" transform="translate(4.200000,-0.907813)scale(0.084000)"/>
</g>
<g style="fill: #000000; stroke: none" transform="translate(317.780000,215.120000)">
<rect x="0.000000" y="-8.400000" width="9.105469" height="0.750000" fill="black" stroke="none" /></g></g>
</g>
<g id="text5">
<g id="mathtext4">
<g style="fill: #000000" transform="translate(409.060000,215.120000)">
<use xlink:href="#c_1a459ac34855d27ec37ccb0e66298d36" transform="translate(0.000000,-10.400000)scale(0.084000)"/>
<use xlink:href="#c_4af9599587a0091f79c2f694637ff61b" transform="translate(0.000000,-0.907813)scale(0.084000)"/>
</g>
<g style="fill: #000000; stroke: none" transform="translate(409.060000,215.120000)">
<rect x="0.000000" y="-8.400000" width="4.905469" height="0.750000" fill="black" stroke="none" /></g></g>
</g>
</g>
<g id="mpl_toolkits.axisartist.axis_artist2">
<g id="patch4">
<path style="fill: none; stroke: #000000; stroke-width: 1.000000; stroke-linejoin: round; stroke-linecap: round;  opacity: 1.000000"  d="M234.000000 241.200000L234.000000 10.800000L234.000000 -0.081966"/>
<path style="fill: #0000ff; stroke: #000000; stroke-width: 1.000000; stroke-linejoin: round; stroke-linecap: round;  opacity: 1.000000"  d="M231.600000 4.718034L234.000000 -0.081966L236.400000 4.718034
L231.600000 4.718034z"/>
</g>
<defs><path id="md8f9f6eeb0297809f71d2fac1eaece30" d="M0.000000 0.000000L-4.000000 -0.000000"/></defs>
<g ><use style="fill: none; stroke: #000000; stroke-width: 0.500000; stroke-linejoin: round; stroke-linecap: butt;  opacity: 1.000000" xlink:href="#md8f9f6eeb0297809f71d2fac1eaece30" x="234.000000" y="225.840000"/>
<use style="fill: none; stroke: #000000; stroke-width: 0.500000; stroke-linejoin: round; stroke-linecap: butt;  opacity: 1.000000" xlink:href="#md8f9f6eeb0297809f71d2fac1eaece30" x="234.000000" y="225.840000"/>
</g><g ><use style="fill: none; stroke: #000000; stroke-width: 0.500000; stroke-linejoin: round; stroke-linecap: butt;  opacity: 1.000000" xlink:href="#md8f9f6eeb0297809f71d2fac1eaece30" x="234.000000" y="195.120000"/>
<use style="fill: none; stroke: #000000; stroke-width: 0.500000; stroke-linejoin: round; stroke-linecap: butt;  opacity: 1.000000" xlink:href="#md8f9f6eeb0297809f71d2fac1eaece30" x="234.000000" y="195.120000"/>
</g><g ><use style="fill: none; stroke: #000000; stroke-width: 0.500000; stroke-linejoin: round; stroke-linecap: butt;  opacity: 1.000000" xlink:href="#md8f9f6eeb0297809f71d2fac1eaece30" x="234.000000" y="164.400000"/>
<use style="fill: none; stroke: #000000; stroke-width: 0.500000; stroke-linejoin: round; stroke-linecap: butt;  opacity: 1.000000" xlink:href="#md8f9f6eeb0297809f71d2fac1eaece30" x="234.000000" y="164.400000"/>
</g><g ><use style="fill: none; stroke: #000000; stroke-width: 0.500000; stroke-linejoin: round; stroke-linecap: butt;  opacity: 1.000000" xlink:href="#md8f9f6eeb0297809f71d2fac1eaece30" x="234.000000" y="133.680000"/>
<use style="fill: none; stroke: #000000; stroke-width: 0.500000; stroke-linejoin: round; stroke-linecap: butt;  opacity: 1.000000" xlink:href="#md8f9f6eeb0297809f71d2fac1eaece30" x="234.000000" y="133.680000"/>
</g><g ><use style="fill: none; stroke: #000000; stroke-width: 0.500000; stroke-linejoin: round; stroke-linecap: butt;  opacity: 1.000000" xlink:href="#md8f9f6eeb0297809f71d2fac1eaece30" x="234.000000" y="102.960000"/>
<use style="fill: none; stroke: #000000; stroke-width: 0.500000; stroke-linejoin: round; stroke-linecap: butt;  opacity: 1.000000" xlink:href="#md8f9f6eeb0297809f71d2fac1eaece30" x="234.000000" y="102.960000"/>
</g><g ><use style="fill: none; stroke: #000000; stroke-width: 0.500000; stroke-linejoin: round; stroke-linecap: butt;  opacity: 1.000000" xlink:href="#md8f9f6eeb0297809f71d2fac1eaece30" x="234.000000" y="72.240000"/>
<use style="fill: none; stroke: #000000; stroke-width: 0.500000; stroke-linejoin: round; stroke-linecap: butt;  opacity: 1.000000" xlink:href="#md8f9f6eeb0297809f71d2fac1eaece30" x="234.000000" y="72.240000"/>
</g><g ><use style="fill: none; stroke: #000000; stroke-width: 0.500000; stroke-linejoin: round; stroke-linecap: butt;  opacity: 1.000000" xlink:href="#md8f9f6eeb0297809f71d2fac1eaece30" x="234.000000" y="41.520000"/>
<use style="fill: none; stroke: #000000; stroke-width: 0.500000; stroke-linejoin: round; stroke-linecap: butt;  opacity: 1.000000" xlink:href="#md8f9f6eeb0297809f71d2fac1eaece30" x="234.000000" y="41.520000"/>
</g><g ><use style="fill: none; stroke: #000000; stroke-width: 0.500000; stroke-linejoin: round; stroke-linecap: butt;  opacity: 1.000000" xlink:href="#md8f9f6eeb0297809f71d2fac1eaece30" x="234.000000" y="10.800000"/>
<use style="fill: none; stroke: #000000; stroke-width: 0.500000; stroke-linejoin: round; stroke-linecap: butt;  opacity: 1.000000" xlink:href="#md8f9f6eeb0297809f71d2fac1eaece30" x="234.000000" y="10.800000"/>
</g></g>
<g id="text6">
<defs>
<path id="c_322d44ed1377de836f22e8890a965a87" d="M9.718750 16.500000q1.859375 1.421875 4.484375 1.421875q3.578125 0.000000 5.812500 -7.906250q0.937500 -3.812500 5.078125 -25.109375l4.593750 -24.500000l-8.593750 0.000000q-0.968750 0.000000 -0.968750 -1.328125q0.390625 -2.187500 1.265625 -2.187500l8.937500 0.000000l1.171875 -6.500000q0.578125 -3.031250 1.062500 -5.203125q0.500000 -2.171875 1.062500 -4.015625q0.562500 -1.859375 1.671875 -4.156250q1.718750 -3.281250 4.625000 -5.406250q2.906250 -2.125000 6.265625 -2.125000q2.203125 0.000000 4.281250 0.812500q2.078125 0.812500 3.390625 2.421875q1.312500 1.609375 1.312500 3.796875q0.000000 2.546875 -1.687500 4.437500q-1.671875 1.875000 -4.062500 1.875000q-1.625000 0.000000 -2.765625 -1.000000q-1.140625 -1.015625 -1.140625 -2.625000q0.000000 -2.187500 1.484375 -3.828125q1.484375 -1.640625 3.687500 -1.875000q-1.859375 -1.421875 -4.593750 -1.421875q-1.515625 0.000000 -2.859375 1.421875q-1.343750 1.406250 -1.734375 3.015625q-0.625000 2.546875 -2.781250 13.781250l-1.218750 6.593750l10.296875 0.000000q0.984375 0.000000 0.984375 1.312500q-0.046875 0.250000 -0.203125 0.859375q-0.140625 0.609375 -0.406250 0.984375q-0.265625 0.359375 -0.656250 0.359375l-10.703125 0.000000l-4.640625 24.406250q-0.875000 5.328125 -2.031250 10.828125q-1.140625 5.484375 -3.218750 11.265625q-2.062500 5.796875 -5.296875 9.703125q-3.218750 3.906250 -7.609375 3.906250q-3.375000 0.000000 -6.031250 -1.937500q-2.656250 -1.921875 -2.656250 -5.093750q0.000000 -2.546875 1.625000 -4.437500q1.640625 -1.875000 4.125000 -1.875000q1.671875 0.000000 2.781250 1.000000q1.125000 1.015625 1.125000 2.625000q0.000000 2.140625 -1.593750 3.921875q-1.578125 1.781250 -3.671875 1.781250"/>
</defs>
<g id="mathtext5">
<g style="fill: #000000" transform="translate(457.200000,198.120000)">
<use xlink:href="#c_322d44ed1377de836f22e8890a965a87" transform="translate(0.000000,-3.531250)scale(0.120000)"/>
</g>
</g>
</g>
<g id="text7">
<defs>
<path id="c_d0f86c0bbfadb7b09dd867328485146a" d="M4.687500 -0.000000q-0.968750 0.000000 -0.968750 -1.312500q0.046875 -0.250000 0.187500 -0.859375q0.140625 -0.609375 0.406250 -0.968750q0.281250 -0.375000 0.671875 -0.375000q6.093750 0.000000 8.500000 -0.687500q1.312500 -0.437500 1.890625 -2.687500l13.734375 -54.921875q0.187500 -0.984375 0.187500 -1.375000q0.000000 -1.078125 -1.218750 -1.218750q-1.859375 -0.390625 -7.171875 -0.390625q-0.984375 0.000000 -0.984375 -1.312500q0.343750 -1.281250 0.531250 -1.734375q0.203125 -0.468750 1.125000 -0.468750l26.906250 0.000000q1.031250 0.000000 1.031250 1.312500q-0.046875 0.250000 -0.203125 0.843750q-0.140625 0.578125 -0.390625 0.968750q-0.234375 0.390625 -0.734375 0.390625q-6.093750 0.000000 -8.484375 0.687500q-1.328125 0.484375 -1.906250 2.734375l-6.015625 24.062500l30.031250 0.000000l6.109375 -24.500000q0.187500 -0.984375 0.187500 -1.375000q0.000000 -1.078125 -1.218750 -1.218750q-1.906250 -0.390625 -7.171875 -0.390625q-1.031250 0.000000 -1.031250 -1.312500q0.343750 -1.281250 0.531250 -1.734375q0.203125 -0.468750 1.187500 -0.468750l26.906250 0.000000q0.968750 0.000000 0.968750 1.312500q-0.046875 0.250000 -0.203125 0.859375q-0.140625 0.609375 -0.406250 0.984375q-0.265625 0.359375 -0.656250 0.359375q-6.109375 0.000000 -8.500000 0.687500q-1.312500 0.437500 -1.906250 2.734375l-13.718750 54.875000q-0.187500 0.984375 -0.187500 1.421875q0.000000 1.031250 1.218750 1.171875q1.906250 0.390625 7.171875 0.390625q1.031250 0.000000 1.031250 1.312500q-0.296875 1.171875 -0.593750 1.687500q-0.296875 0.515625 -1.125000 0.515625l-26.906250 0.000000q-1.015625 0.000000 -1.015625 -1.312500q0.187500 -0.734375 0.281250 -1.078125q0.109375 -0.343750 0.375000 -0.734375q0.265625 -0.390625 0.656250 -0.390625q6.109375 0.000000 8.500000 -0.687500q1.312500 -0.437500 1.906250 -2.687500l6.687500 -26.906250l-29.984375 0.000000l-6.781250 27.296875q-0.250000 1.218750 -0.250000 1.421875q0.000000 1.031250 1.218750 1.171875q1.906250 0.390625 7.234375 0.390625q0.968750 0.000000 0.968750 1.312500q-0.343750 1.328125 -0.562500 1.765625q-0.218750 0.437500 -1.140625 0.437500z"/>
<path id="c_06a7a4502300c60b4feec85758ecf628" d="M31.000000 24.812500q-5.562500 -4.406250 -9.593750 -10.093750q-4.015625 -5.687500 -6.593750 -12.140625q-2.562500 -6.437500 -3.828125 -13.468750q-1.265625 -7.031250 -1.265625 -14.109375q0.000000 -7.171875 1.265625 -14.203125q1.265625 -7.031250 3.875000 -13.531250q2.625000 -6.500000 6.671875 -12.156250q4.062500 -5.671875 9.468750 -9.921875q0.000000 -0.187500 0.500000 -0.187500l0.921875 0.000000q0.296875 0.000000 0.531250 0.265625q0.250000 0.265625 0.250000 0.609375q0.000000 0.437500 -0.187500 0.640625q-4.890625 4.781250 -8.140625 10.250000q-3.250000 5.468750 -5.234375 11.656250q-1.968750 6.171875 -2.843750 12.796875q-0.875000 6.609375 -0.875000 13.781250q0.000000 31.781250 16.984375 48.296875q0.296875 0.281250 0.296875 0.828125q0.000000 0.234375 -0.265625 0.546875q-0.265625 0.328125 -0.515625 0.328125l-0.921875 0.000000q-0.500000 0.000000 -0.500000 -0.187500"/>
<path id="c_b865a8a4692360a5eaaff4ecf56eccf7" d="M6.500000 25.000000q-0.890625 0.000000 -0.890625 -0.875000q0.000000 -0.437500 0.203125 -0.640625q17.093750 -16.703125 17.093750 -48.484375q0.000000 -31.781250 -16.906250 -48.296875q-0.390625 -0.234375 -0.390625 -0.828125q0.000000 -0.343750 0.265625 -0.609375q0.281250 -0.265625 0.625000 -0.265625l0.921875 0.000000q0.296875 0.000000 0.484375 0.187500q7.187500 5.671875 11.968750 13.781250q4.781250 8.093750 7.000000 17.281250q2.234375 9.171875 2.234375 18.750000q0.000000 7.078125 -1.203125 13.937500q-1.203125 6.859375 -3.812500 13.515625q-2.609375 6.671875 -6.609375 12.312500q-4.000000 5.640625 -9.578125 10.046875q-0.187500 0.187500 -0.484375 0.187500z"/>
</defs>
<g id="mathtext6">
<g style="fill: #000000" transform="translate(242.928000,21.480000)">
<use xlink:href="#c_d0f86c0bbfadb7b09dd867328485146a" transform="translate(0.000000,-3.000000)scale(0.120000)"/>
<use xlink:href="#c_06a7a4502300c60b4feec85758ecf628" transform="translate(9.972656,-3.000000)scale(0.120000)"/>
<use xlink:href="#c_322d44ed1377de836f22e8890a965a87" transform="translate(14.630859,-3.000000)scale(0.120000)"/>
<use xlink:href="#c_b865a8a4692360a5eaaff4ecf56eccf7" transform="translate(20.496094,-3.000000)scale(0.120000)"/>
</g>
</g>
</g>
<g id="legend1">
<g id="patch5">
<path style="fill: #ffffff; stroke: #000000; stroke-width: 1.000000; stroke-linejoin: round; stroke-linecap: square;  opacity: 1.000000"  d="M349.160000 107.120000L450.000000 107.120000L450.000000 18.000000
L349.160000 18.000000L349.160000 107.120000z"/>
</g>
<g id="line2d5">
<path style="fill: none; stroke: #0000ff; stroke-width: 1.000000; stroke-linejoin: round; stroke-linecap: square;  opacity: 1.000000"  d="M359.240000 29.720000L379.400000 29.720000"/>
</g>
<g id="line2d6">
</g>
<g id="text8">
<defs>
<path id="c_69dc50131244cbd363528a547fd15b91" d="M2.687500 19.390625q-0.296875 0.000000 -0.546875 -0.343750q-0.234375 -0.343750 -0.234375 -0.640625l15.375000 -61.812500q1.328125 -4.984375 3.859375 -9.671875q2.546875 -4.687500 6.375000 -8.718750q3.828125 -4.031250 8.421875 -6.375000q4.593750 -2.343750 9.765625 -2.343750q3.718750 0.000000 6.718750 1.640625q3.000000 1.640625 4.734375 4.593750q1.734375 2.953125 1.734375 6.656250q0.000000 3.578125 -1.375000 6.828125q-1.359375 3.234375 -3.812500 6.046875q-2.437500 2.812500 -5.218750 4.562500q1.609375 1.031250 2.875000 2.625000q1.281250 1.578125 2.062500 3.312500q0.781250 1.734375 1.218750 3.859375q0.437500 2.125000 0.437500 3.968750q0.000000 5.125000 -2.203125 10.109375q-2.187500 4.984375 -5.984375 9.046875q-3.781250 4.046875 -8.671875 6.421875q-4.875000 2.359375 -10.000000 2.359375q-5.609375 0.000000 -10.109375 -3.078125q-4.484375 -3.078125 -6.187500 -8.343750l-7.234375 28.703125q0.000000 0.593750 -0.781250 0.593750zM28.421875 -1.218750q4.484375 0.000000 8.125000 -2.953125q3.640625 -2.953125 6.000000 -7.421875q2.375000 -4.468750 3.609375 -9.468750q1.250000 -5.015625 1.250000 -9.109375q0.000000 -5.078125 -2.921875 -8.015625q-3.421875 1.265625 -6.687500 1.265625q-7.906250 0.000000 -7.906250 -2.671875q0.000000 -3.515625 9.031250 -3.515625q3.218750 0.000000 5.906250 1.015625q2.140625 -1.656250 3.890625 -4.875000q1.765625 -3.234375 2.671875 -6.750000q0.906250 -3.515625 0.906250 -6.578125q0.000000 -3.281250 -1.734375 -5.453125q-1.734375 -2.171875 -5.046875 -2.171875q-6.109375 0.000000 -11.359375 3.765625q-5.250000 3.750000 -8.859375 9.500000q-3.609375 5.734375 -5.171875 11.828125l-5.531250 22.125000q-0.531250 2.296875 -0.671875 5.125000q0.000000 6.250000 4.093750 10.312500q4.109375 4.046875 10.406250 4.046875M32.906250 -39.890625q1.515625 0.390625 4.984375 0.390625q1.703125 0.000000 3.421875 -0.593750q-0.093750 -0.093750 -0.390625 -0.093750q-1.078125 -0.296875 -2.296875 -0.296875q-4.546875 0.000000 -5.718750 0.593750"/>
<path id="c_7bbc93c01755cdeb977d08bdfb9ce616" d="M7.515625 -13.281250q-0.828125 0.000000 -1.375000 -0.625000q-0.531250 -0.640625 -0.531250 -1.375000q0.000000 -0.828125 0.531250 -1.406250q0.546875 -0.593750 1.375000 -0.593750l62.796875 0.000000q0.734375 0.000000 1.265625 0.593750q0.546875 0.578125 0.546875 1.406250q0.000000 0.734375 -0.546875 1.375000q-0.531250 0.625000 -1.265625 0.625000zM7.515625 -32.718750q-0.828125 0.000000 -1.375000 -0.578125q-0.531250 -0.593750 -0.531250 -1.421875q0.000000 -0.734375 0.531250 -1.359375q0.546875 -0.640625 1.375000 -0.640625l62.796875 0.000000q0.734375 0.000000 1.265625 0.640625q0.546875 0.625000 0.546875 1.359375q0.000000 0.828125 -0.546875 1.421875q-0.531250 0.578125 -1.265625 0.578125z"/>
<path id="c_f47f2818876b2f1a61c47f270461e46e" d="M25.000000 2.203125q-12.250000 0.000000 -16.671875 -10.078125q-4.421875 -10.093750 -4.421875 -24.015625q0.000000 -8.687500 1.578125 -16.343750q1.593750 -7.671875 6.296875 -13.015625q4.718750 -5.359375 13.218750 -5.359375q6.593750 0.000000 10.781250 3.234375q4.203125 3.218750 6.406250 8.328125q2.203125 5.093750 3.000000 10.937500q0.812500 5.828125 0.812500 12.218750q0.000000 8.593750 -1.593750 16.093750q-1.578125 7.500000 -6.218750 12.750000q-4.640625 5.250000 -13.187500 5.250000M25.000000 -0.390625q5.562500 0.000000 8.296875 -5.703125q2.734375 -5.718750 3.375000 -12.656250q0.640625 -6.937500 0.640625 -14.750000q0.000000 -7.515625 -0.640625 -13.859375q-0.640625 -6.359375 -3.359375 -11.500000q-2.703125 -5.156250 -8.312500 -5.156250q-5.656250 0.000000 -8.390625 5.187500q-2.734375 5.171875 -3.375000 11.500000q-0.640625 6.312500 -0.640625 13.828125q0.000000 5.562500 0.265625 10.500000q0.281250 4.937500 1.453125 10.187500q1.171875 5.250000 3.781250 8.843750q2.609375 3.578125 6.906250 3.578125"/>
</defs>
<g id="mathtext7">
<g style="fill: #000000" transform="translate(395.240000,37.760000)">
<use xlink:href="#c_69dc50131244cbd363528a547fd15b91" transform="translate(0.000000,-3.859375)scale(0.144000)"/>
<use xlink:href="#c_7bbc93c01755cdeb977d08bdfb9ce616" transform="translate(10.656644,-3.859375)scale(0.144000)"/>
<use xlink:href="#c_f47f2818876b2f1a61c47f270461e46e" transform="translate(22.745935,-3.859375)scale(0.144000)"/>
</g>
</g>
</g>
<g id="line2d7">
<path style="fill: none; stroke: #008000; stroke-width: 1.000000; stroke-linejoin: round; stroke-linecap: square;  opacity: 1.000000"  d="M359.240000 50.920000L379.400000 50.920000"/>
</g>
<g id="line2d8">
</g>
<g id="text9">
<defs>
<path id="c_8b48a7401ae680eb5f4c605f13a7b112" d="M8.406250 -5.515625q0.000000 -2.250000 1.656250 -3.859375q1.656250 -1.609375 3.859375 -1.609375q1.359375 0.000000 2.671875 0.734375q1.328125 0.734375 2.062500 2.046875q0.734375 1.312500 0.734375 2.687500q0.000000 2.187500 -1.625000 3.859375q-1.609375 1.656250 -3.843750 1.656250q-2.203125 0.000000 -3.859375 -1.656250q-1.656250 -1.671875 -1.656250 -3.859375"/>
<path id="c_7d09e94cce4bdf71f2297f5bbc354b76" d="M8.687500 -11.375000q1.031250 2.921875 3.156250 5.328125q2.125000 2.390625 5.031250 3.734375q2.906250 1.328125 6.031250 1.328125q7.218750 0.000000 9.953125 -5.609375q2.734375 -5.609375 2.734375 -13.625000q0.000000 -3.468750 -0.125000 -5.828125q-0.109375 -2.375000 -0.656250 -4.562500q-0.921875 -3.515625 -3.250000 -6.156250q-2.312500 -2.640625 -5.687500 -2.640625q-3.359375 0.000000 -5.781250 1.031250q-2.421875 1.015625 -3.937500 2.390625q-1.500000 1.359375 -2.671875 2.875000q-1.171875 1.515625 -1.468750 1.609375l-1.125000 0.000000q-0.250000 0.000000 -0.625000 -0.312500q-0.359375 -0.312500 -0.359375 -0.609375l0.000000 -33.406250q0.000000 -0.234375 0.312500 -0.500000q0.328125 -0.281250 0.671875 -0.281250l0.296875 0.000000q6.734375 3.234375 14.296875 3.234375q7.421875 0.000000 14.312500 -3.234375l0.296875 0.000000q0.343750 0.000000 0.625000 0.250000q0.296875 0.250000 0.296875 0.531250l0.000000 0.937500q0.000000 0.484375 -0.187500 0.484375q-3.421875 4.546875 -8.578125 7.093750q-5.156250 2.531250 -10.671875 2.531250q-4.000000 0.000000 -8.203125 -1.125000l0.000000 18.890625q3.328125 -2.687500 5.937500 -3.828125q2.609375 -1.156250 6.671875 -1.156250q5.515625 0.000000 9.875000 3.187500q4.375000 3.171875 6.718750 8.281250q2.343750 5.093750 2.343750 10.406250q0.000000 6.015625 -2.953125 11.140625q-2.953125 5.125000 -8.031250 8.156250q-5.078125 3.031250 -11.031250 3.031250q-4.937500 0.000000 -9.062500 -2.531250q-4.125000 -2.546875 -6.500000 -6.843750q-2.359375 -4.296875 -2.359375 -9.140625q0.000000 -2.250000 1.453125 -3.656250q1.468750 -1.421875 3.671875 -1.421875q2.203125 0.000000 3.687500 1.453125q1.484375 1.437500 1.484375 3.625000q0.000000 2.156250 -1.484375 3.640625q-1.484375 1.484375 -3.687500 1.484375q-0.343750 0.000000 -0.781250 -0.062500q-0.437500 -0.078125 -0.640625 -0.125000"/>
</defs>
<g id="mathtext8">
<g style="fill: #000000" transform="translate(395.240000,58.960000)">
<use xlink:href="#c_69dc50131244cbd363528a547fd15b91" transform="translate(0.000000,-3.859375)scale(0.144000)"/>
<use xlink:href="#c_7bbc93c01755cdeb977d08bdfb9ce616" transform="translate(10.656644,-3.859375)scale(0.144000)"/>
<use xlink:href="#c_f47f2818876b2f1a61c47f270461e46e" transform="translate(22.745935,-3.859375)scale(0.144000)"/>
<use xlink:href="#c_8b48a7401ae680eb5f4c605f13a7b112" transform="translate(29.941248,-3.859375)scale(0.144000)"/>
<use xlink:href="#c_1210e7f4d85518601ea3049211d562d0" transform="translate(34.046164,-3.859375)scale(0.144000)"/>
<use xlink:href="#c_7d09e94cce4bdf71f2297f5bbc354b76" transform="translate(41.241476,-3.859375)scale(0.144000)"/>
</g>
</g>
</g>
<g id="line2d9">
<path style="fill: none; stroke: #ff0000; stroke-width: 1.000000; stroke-linejoin: round; stroke-linecap: square;  opacity: 1.000000"  d="M359.240000 72.120000L379.400000 72.120000"/>
</g>
<g id="line2d10">
</g>
<g id="text10">
<g id="mathtext9">
<g style="fill: #000000" transform="translate(395.240000,80.160000)">
<use xlink:href="#c_69dc50131244cbd363528a547fd15b91" transform="translate(0.000000,-3.859375)scale(0.144000)"/>
<use xlink:href="#c_7bbc93c01755cdeb977d08bdfb9ce616" transform="translate(10.656644,-3.859375)scale(0.144000)"/>
<use xlink:href="#c_f47f2818876b2f1a61c47f270461e46e" transform="translate(22.745935,-3.859375)scale(0.144000)"/>
<use xlink:href="#c_8b48a7401ae680eb5f4c605f13a7b112" transform="translate(29.941248,-3.859375)scale(0.144000)"/>
<use xlink:href="#c_7d09e94cce4bdf71f2297f5bbc354b76" transform="translate(34.046164,-3.859375)scale(0.144000)"/>
</g>
</g>
</g>
<g id="line2d11">
<path style="fill: none; stroke: #00bfbf; stroke-width: 1.000000; stroke-linejoin: round; stroke-linecap: square;  opacity: 1.000000"  d="M359.240000 93.320000L379.400000 93.320000"/>
</g>
<g id="line2d12">
</g>
<g id="text11">
<g id="mathtext10">
<g style="fill: #000000" transform="translate(395.240000,101.360000)">
<use xlink:href="#c_69dc50131244cbd363528a547fd15b91" transform="translate(0.000000,-3.859375)scale(0.144000)"/>
<use xlink:href="#c_7bbc93c01755cdeb977d08bdfb9ce616" transform="translate(10.656644,-3.859375)scale(0.144000)"/>
<use xlink:href="#c_1a459ac34855d27ec37ccb0e66298d36" transform="translate(22.745935,-3.859375)scale(0.144000)"/>
</g>
</g>
</g>
</g>
</g>
</g>
</svg>
